%
M48
M72
T01C0.02362
T02C0.03200
T03C0.03600
T04C0.03937
T05C0.04000
T06C0.04400
T07C0.04921
T08C0.12598
%
T01
X115095Y121256
X215095Y101256
X267595Y101256
X273220Y101256
X273220Y111256
X267595Y111256
X280095Y46256
X290095Y38756
X295095Y33756
X265095Y38756
X260095Y33756
X250095Y33756
T02
X235095Y51256
X235095Y61256
X235095Y71256
X235095Y81256
X235095Y91256
X235095Y101256
X235095Y111256
X235095Y121256
X235095Y131256
X235095Y141256
X235095Y151256
X235095Y161256
X235095Y171256
X235095Y181256
X245095Y196256
X267595Y204256
X267595Y218256
X245095Y226256
X235095Y226256
X205095Y226256
X187595Y226256
X187595Y216256
X205095Y181256
X205095Y171256
X205095Y161256
X205095Y151256
X205095Y141256
X205095Y131256
X205095Y121256
X205095Y111256
X205095Y101256
X205095Y91256
X205095Y81256
X205095Y71256
X205095Y61256
X205095Y51256
X170095Y84256
X155095Y81256
X155095Y91256
X155095Y101256
X155095Y111256
X145095Y121256
X135095Y121256
X125095Y121256
X120095Y141256
X120095Y151256
X107595Y168756
X107595Y198756
X150095Y151256
X150095Y141256
X170095Y141256
X170095Y121256
X170095Y103256
X155095Y66256
X125095Y66256
X105095Y61256
X95095Y61256
X85095Y61256
X75095Y61256
X60095Y66256
X60095Y76256
X60095Y86256
X75095Y91256
X85095Y91256
X95095Y91256
X105095Y91256
T03
X150095Y26256
X160095Y26256
X170095Y26256
X180095Y26256
X190095Y26256
X200095Y26256
X210095Y26256
X220095Y26256
X220095Y16256
X210095Y16256
X200095Y16256
X190095Y16256
X180095Y16256
X170095Y16256
X160095Y16256
X150095Y16256
X270095Y16256
X280095Y16256
X290095Y16256
X300095Y16256
X310095Y16256
X310095Y26256
X300095Y26256
X290095Y26256
X280095Y26256
X270095Y26256
T04
X35095Y116256
X45095Y116256
X55095Y116256
X65095Y116256
X75095Y116256
X85095Y116256
X95095Y116256
X105095Y116256
X120095Y181256
X130095Y181256
X140095Y181256
X150095Y181256
X160095Y181256
X170095Y181256
X280095Y181256
X290095Y181256
X300095Y181256
X310095Y181256
X320095Y181256
X330095Y181256
X320095Y46256
X310095Y46256
X300095Y46256
X290095Y46256
X105095Y46256
X95095Y46256
X85095Y46256
X75095Y46256
X65095Y46256
X55095Y46256
X45095Y46256
X35095Y46256
T05
X50095Y16256
X60095Y16256
X70095Y16256
X80095Y16256
X90095Y16256
X100095Y16256
X110095Y16256
X120095Y16256
X190095Y51256
X190095Y61256
X190095Y71256
X190095Y81256
X190095Y91256
X190095Y101256
X190095Y111256
X190095Y121256
X190095Y131256
X190095Y141256
X190095Y151256
X190095Y161256
X190095Y171256
X190095Y181256
X207295Y194856
X207295Y212656
X232895Y212656
X232895Y194856
X250095Y181256
X250095Y171256
X250095Y161256
X250095Y151256
X250095Y141256
X250095Y131256
X250095Y121256
X250095Y111256
X250095Y101256
X250095Y91256
X250095Y81256
X250095Y71256
X250095Y61256
X250095Y51256
X95095Y168756
X25095Y168756
X45095Y168756
X65095Y168756
X65095Y198756
X95095Y198756
X130095Y211256
X160095Y211256
X160095Y181256
X150095Y181256
X140095Y181256
X130095Y181256
X120095Y181256
X170095Y181256
X85095Y131256
X75095Y131256
X65095Y131256
X55095Y131256
X45095Y131256
X35095Y131256
X25095Y198756
X45095Y198756
X280095Y181256
X290095Y181256
X300095Y181256
X310095Y181256
X320095Y181256
X330095Y181256
T06
X330095Y196256
X290095Y196256
T07
X80095Y221256
X60095Y221256
X300095Y218756
X320095Y218756
T08
X30095Y13756
X30095Y223756
X342595Y223756
X342595Y13756
M30
