G75*
%MOIN*%
%OFA0B0*%
%FSLAX25Y25*%
%IPPOS*%
%LPD*%
%AMOC8*
5,1,8,0,0,1.08239X$1,22.5*
%
%ADD10C,0.00000*%
%ADD11C,0.00512*%
%ADD12C,0.00600*%
%ADD13C,0.04000*%
%ADD14R,0.00400X0.00400*%
%ADD15R,0.18400X0.00400*%
%ADD16R,0.25200X0.00400*%
%ADD17R,0.30400X0.00400*%
%ADD18R,0.35600X0.00400*%
%ADD19R,0.39600X0.00400*%
%ADD20R,0.43600X0.00400*%
%ADD21R,0.47600X0.00400*%
%ADD22R,0.50800X0.00400*%
%ADD23R,0.53600X0.00400*%
%ADD24R,0.56400X0.00400*%
%ADD25R,0.59600X0.00400*%
%ADD26R,0.62000X0.00400*%
%ADD27R,0.64400X0.00400*%
%ADD28R,0.26800X0.00400*%
%ADD29R,0.24400X0.00400*%
%ADD30R,0.21600X0.00400*%
%ADD31R,0.20400X0.00400*%
%ADD32R,0.20000X0.00400*%
%ADD33R,0.19200X0.00400*%
%ADD34R,0.18000X0.00400*%
%ADD35R,0.09200X0.00400*%
%ADD36R,0.17600X0.00400*%
%ADD37R,0.16400X0.00400*%
%ADD38R,0.15600X0.00400*%
%ADD39R,0.31600X0.00400*%
%ADD40R,0.15200X0.00400*%
%ADD41R,0.34000X0.00400*%
%ADD42R,0.14800X0.00400*%
%ADD43R,0.37200X0.00400*%
%ADD44R,0.14400X0.00400*%
%ADD45R,0.39200X0.00400*%
%ADD46R,0.14000X0.00400*%
%ADD47R,0.40800X0.00400*%
%ADD48R,0.13600X0.00400*%
%ADD49R,0.42000X0.00400*%
%ADD50R,0.13200X0.00400*%
%ADD51R,0.43200X0.00400*%
%ADD52R,0.44800X0.00400*%
%ADD53R,0.12800X0.00400*%
%ADD54R,0.46000X0.00400*%
%ADD55R,0.46800X0.00400*%
%ADD56R,0.12400X0.00400*%
%ADD57R,0.12000X0.00400*%
%ADD58R,0.48000X0.00400*%
%ADD59R,0.48800X0.00400*%
%ADD60R,0.50000X0.00400*%
%ADD61R,0.11600X0.00400*%
%ADD62R,0.11200X0.00400*%
%ADD63R,0.52000X0.00400*%
%ADD64R,0.52800X0.00400*%
%ADD65R,0.10800X0.00400*%
%ADD66R,0.54800X0.00400*%
%ADD67R,0.10400X0.00400*%
%ADD68R,0.55200X0.00400*%
%ADD69R,0.56000X0.00400*%
%ADD70R,0.56800X0.00400*%
%ADD71R,0.57600X0.00400*%
%ADD72R,0.58400X0.00400*%
%ADD73R,0.10000X0.00400*%
%ADD74R,0.58800X0.00400*%
%ADD75R,0.60000X0.00400*%
%ADD76R,0.09600X0.00400*%
%ADD77R,0.60400X0.00400*%
%ADD78R,0.61200X0.00400*%
%ADD79R,0.62400X0.00400*%
%ADD80R,0.62800X0.00400*%
%ADD81R,0.63600X0.00400*%
%ADD82R,0.64000X0.00400*%
%ADD83R,0.04400X0.00400*%
%ADD84R,0.08800X0.00400*%
%ADD85R,0.07200X0.00400*%
%ADD86R,0.65200X0.00400*%
%ADD87R,0.66000X0.00400*%
%ADD88R,0.66800X0.00400*%
%ADD89R,0.08400X0.00400*%
%ADD90R,0.52400X0.00400*%
%ADD91R,0.21200X0.00400*%
%ADD92R,0.51600X0.00400*%
%ADD93R,0.22800X0.00400*%
%ADD94R,0.51200X0.00400*%
%ADD95R,0.50400X0.00400*%
%ADD96R,0.26400X0.00400*%
%ADD97R,0.08000X0.00400*%
%ADD98R,0.03600X0.00400*%
%ADD99R,0.27200X0.00400*%
%ADD100R,0.03200X0.00400*%
%ADD101R,0.49600X0.00400*%
%ADD102R,0.27600X0.00400*%
%ADD103R,0.00800X0.00400*%
%ADD104R,0.49200X0.00400*%
%ADD105R,0.05200X0.00400*%
%ADD106R,0.28000X0.00400*%
%ADD107R,0.07600X0.00400*%
%ADD108R,0.01600X0.00400*%
%ADD109R,0.28400X0.00400*%
%ADD110R,0.48400X0.00400*%
%ADD111R,0.02400X0.00400*%
%ADD112R,0.02800X0.00400*%
%ADD113R,0.47200X0.00400*%
%ADD114R,0.04000X0.00400*%
%ADD115R,0.20800X0.00400*%
%ADD116R,0.46400X0.00400*%
%ADD117R,0.45600X0.00400*%
%ADD118R,0.16000X0.00400*%
%ADD119R,0.45200X0.00400*%
%ADD120R,0.16800X0.00400*%
%ADD121R,0.02000X0.00400*%
%ADD122R,0.44400X0.00400*%
%ADD123R,0.22400X0.00400*%
%ADD124R,0.23200X0.00400*%
%ADD125R,0.44000X0.00400*%
%ADD126R,0.06800X0.00400*%
%ADD127R,0.42800X0.00400*%
%ADD128R,0.42400X0.00400*%
%ADD129R,0.53200X0.00400*%
%ADD130R,0.06400X0.00400*%
%ADD131R,0.01200X0.00400*%
%ADD132R,0.05600X0.00400*%
%ADD133R,0.68400X0.00400*%
%ADD134R,0.04800X0.00400*%
%ADD135R,0.68000X0.00400*%
%ADD136R,0.64800X0.00400*%
%ADD137R,0.65600X0.00400*%
%ADD138R,0.67600X0.00400*%
%ADD139R,0.68800X0.00400*%
%ADD140R,0.70400X0.00400*%
%ADD141R,0.84000X0.00400*%
%ADD142R,0.06000X0.00400*%
%ADD143R,1.00400X0.00400*%
%ADD144R,1.01200X0.00400*%
%ADD145R,1.02000X0.00400*%
%ADD146R,1.02800X0.00400*%
%ADD147R,1.03200X0.00400*%
%ADD148R,1.03600X0.00400*%
%ADD149R,1.02400X0.00400*%
%ADD150R,1.00800X0.00400*%
%ADD151R,0.99600X0.00400*%
%ADD152R,0.98400X0.00400*%
%ADD153R,0.95600X0.00400*%
%ADD154R,0.92800X0.00400*%
%ADD155R,0.91600X0.00400*%
%ADD156R,0.90000X0.00400*%
%ADD157R,0.88000X0.00400*%
%ADD158R,0.86400X0.00400*%
%ADD159R,0.84800X0.00400*%
%ADD160R,0.83200X0.00400*%
%ADD161R,0.81200X0.00400*%
%ADD162R,0.78800X0.00400*%
%ADD163R,0.18800X0.00400*%
%ADD164R,0.76800X0.00400*%
%ADD165R,0.72800X0.00400*%
%ADD166R,0.23600X0.00400*%
%ADD167R,0.71600X0.00400*%
%ADD168R,0.25600X0.00400*%
%ADD169R,0.70000X0.00400*%
%ADD170R,0.67200X0.00400*%
%ADD171R,0.66400X0.00400*%
%ADD172R,0.26000X0.00400*%
%ADD173R,0.69600X0.00400*%
%ADD174R,0.71200X0.00400*%
%ADD175R,0.72000X0.00400*%
%ADD176R,0.90400X0.00400*%
%ADD177R,0.91200X0.00400*%
%ADD178R,0.92000X0.00400*%
%ADD179R,0.92400X0.00400*%
%ADD180R,0.93200X0.00400*%
%ADD181R,0.93600X0.00400*%
%ADD182R,0.94800X0.00400*%
%ADD183R,0.24000X0.00400*%
%ADD184R,0.94400X0.00400*%
%ADD185R,0.94000X0.00400*%
%ADD186R,0.90800X0.00400*%
%ADD187R,0.30800X0.00400*%
%ADD188R,0.28800X0.00400*%
%ADD189R,0.89600X0.00400*%
%ADD190R,0.24800X0.00400*%
%ADD191R,0.89200X0.00400*%
%ADD192R,0.88800X0.00400*%
%ADD193R,0.88400X0.00400*%
%ADD194R,0.81600X0.00400*%
%ADD195R,0.80800X0.00400*%
%ADD196R,0.29600X0.00400*%
%ADD197R,0.36800X0.00400*%
%ADD198R,0.82000X0.00400*%
%ADD199R,0.36400X0.00400*%
%ADD200R,0.82400X0.00400*%
%ADD201R,0.36000X0.00400*%
%ADD202R,0.35200X0.00400*%
%ADD203R,0.34400X0.00400*%
%ADD204R,0.33600X0.00400*%
%ADD205R,0.33200X0.00400*%
%ADD206R,0.32800X0.00400*%
%ADD207R,0.32400X0.00400*%
%ADD208R,0.32000X0.00400*%
%ADD209R,0.19600X0.00400*%
%ADD210R,0.22000X0.00400*%
%ADD211R,0.55600X0.00400*%
%ADD212R,0.31200X0.00400*%
%ADD213R,0.30000X0.00400*%
%ADD214R,0.38400X0.00400*%
%ADD215R,0.40000X0.00400*%
%ADD216R,0.41200X0.00400*%
%ADD217R,0.40400X0.00400*%
%ADD218R,0.37600X0.00400*%
%ADD219R,0.34800X0.00400*%
%ADD220R,0.17200X0.00400*%
%ADD221R,0.38800X0.00400*%
%ADD222R,0.29200X0.00400*%
D10*
X0017595Y0013756D02*
X0017595Y0223756D01*
X0017599Y0224058D01*
X0017610Y0224360D01*
X0017628Y0224661D01*
X0017653Y0224962D01*
X0017686Y0225263D01*
X0017726Y0225562D01*
X0017773Y0225860D01*
X0017828Y0226158D01*
X0017889Y0226453D01*
X0017958Y0226747D01*
X0018034Y0227040D01*
X0018117Y0227330D01*
X0018207Y0227619D01*
X0018304Y0227905D01*
X0018407Y0228189D01*
X0018518Y0228470D01*
X0018635Y0228748D01*
X0018759Y0229024D01*
X0018890Y0229296D01*
X0019027Y0229565D01*
X0019170Y0229831D01*
X0019320Y0230093D01*
X0019477Y0230352D01*
X0019639Y0230606D01*
X0019808Y0230857D01*
X0019982Y0231103D01*
X0020163Y0231346D01*
X0020349Y0231583D01*
X0020541Y0231817D01*
X0020739Y0232045D01*
X0020942Y0232269D01*
X0021150Y0232487D01*
X0021364Y0232701D01*
X0021582Y0232909D01*
X0021806Y0233112D01*
X0022034Y0233310D01*
X0022268Y0233502D01*
X0022505Y0233688D01*
X0022748Y0233869D01*
X0022994Y0234043D01*
X0023245Y0234212D01*
X0023499Y0234374D01*
X0023758Y0234531D01*
X0024020Y0234681D01*
X0024286Y0234824D01*
X0024555Y0234961D01*
X0024827Y0235092D01*
X0025103Y0235216D01*
X0025381Y0235333D01*
X0025662Y0235444D01*
X0025946Y0235547D01*
X0026232Y0235644D01*
X0026521Y0235734D01*
X0026811Y0235817D01*
X0027104Y0235893D01*
X0027398Y0235962D01*
X0027693Y0236023D01*
X0027991Y0236078D01*
X0028289Y0236125D01*
X0028588Y0236165D01*
X0028889Y0236198D01*
X0029190Y0236223D01*
X0029491Y0236241D01*
X0029793Y0236252D01*
X0030095Y0236256D01*
X0342595Y0236256D01*
X0342897Y0236252D01*
X0343199Y0236241D01*
X0343500Y0236223D01*
X0343801Y0236198D01*
X0344102Y0236165D01*
X0344401Y0236125D01*
X0344699Y0236078D01*
X0344997Y0236023D01*
X0345292Y0235962D01*
X0345586Y0235893D01*
X0345879Y0235817D01*
X0346169Y0235734D01*
X0346458Y0235644D01*
X0346744Y0235547D01*
X0347028Y0235444D01*
X0347309Y0235333D01*
X0347587Y0235216D01*
X0347863Y0235092D01*
X0348135Y0234961D01*
X0348404Y0234824D01*
X0348670Y0234681D01*
X0348932Y0234531D01*
X0349191Y0234374D01*
X0349445Y0234212D01*
X0349696Y0234043D01*
X0349942Y0233869D01*
X0350185Y0233688D01*
X0350422Y0233502D01*
X0350656Y0233310D01*
X0350884Y0233112D01*
X0351108Y0232909D01*
X0351326Y0232701D01*
X0351540Y0232487D01*
X0351748Y0232269D01*
X0351951Y0232045D01*
X0352149Y0231817D01*
X0352341Y0231583D01*
X0352527Y0231346D01*
X0352708Y0231103D01*
X0352882Y0230857D01*
X0353051Y0230606D01*
X0353213Y0230352D01*
X0353370Y0230093D01*
X0353520Y0229831D01*
X0353663Y0229565D01*
X0353800Y0229296D01*
X0353931Y0229024D01*
X0354055Y0228748D01*
X0354172Y0228470D01*
X0354283Y0228189D01*
X0354386Y0227905D01*
X0354483Y0227619D01*
X0354573Y0227330D01*
X0354656Y0227040D01*
X0354732Y0226747D01*
X0354801Y0226453D01*
X0354862Y0226158D01*
X0354917Y0225860D01*
X0354964Y0225562D01*
X0355004Y0225263D01*
X0355037Y0224962D01*
X0355062Y0224661D01*
X0355080Y0224360D01*
X0355091Y0224058D01*
X0355095Y0223756D01*
X0355095Y0013756D01*
X0355091Y0013454D01*
X0355080Y0013152D01*
X0355062Y0012851D01*
X0355037Y0012550D01*
X0355004Y0012249D01*
X0354964Y0011950D01*
X0354917Y0011652D01*
X0354862Y0011354D01*
X0354801Y0011059D01*
X0354732Y0010765D01*
X0354656Y0010472D01*
X0354573Y0010182D01*
X0354483Y0009893D01*
X0354386Y0009607D01*
X0354283Y0009323D01*
X0354172Y0009042D01*
X0354055Y0008764D01*
X0353931Y0008488D01*
X0353800Y0008216D01*
X0353663Y0007947D01*
X0353520Y0007681D01*
X0353370Y0007419D01*
X0353213Y0007160D01*
X0353051Y0006906D01*
X0352882Y0006655D01*
X0352708Y0006409D01*
X0352527Y0006166D01*
X0352341Y0005929D01*
X0352149Y0005695D01*
X0351951Y0005467D01*
X0351748Y0005243D01*
X0351540Y0005025D01*
X0351326Y0004811D01*
X0351108Y0004603D01*
X0350884Y0004400D01*
X0350656Y0004202D01*
X0350422Y0004010D01*
X0350185Y0003824D01*
X0349942Y0003643D01*
X0349696Y0003469D01*
X0349445Y0003300D01*
X0349191Y0003138D01*
X0348932Y0002981D01*
X0348670Y0002831D01*
X0348404Y0002688D01*
X0348135Y0002551D01*
X0347863Y0002420D01*
X0347587Y0002296D01*
X0347309Y0002179D01*
X0347028Y0002068D01*
X0346744Y0001965D01*
X0346458Y0001868D01*
X0346169Y0001778D01*
X0345879Y0001695D01*
X0345586Y0001619D01*
X0345292Y0001550D01*
X0344997Y0001489D01*
X0344699Y0001434D01*
X0344401Y0001387D01*
X0344102Y0001347D01*
X0343801Y0001314D01*
X0343500Y0001289D01*
X0343199Y0001271D01*
X0342897Y0001260D01*
X0342595Y0001256D01*
X0030095Y0001256D01*
X0029793Y0001260D01*
X0029491Y0001271D01*
X0029190Y0001289D01*
X0028889Y0001314D01*
X0028588Y0001347D01*
X0028289Y0001387D01*
X0027991Y0001434D01*
X0027693Y0001489D01*
X0027398Y0001550D01*
X0027104Y0001619D01*
X0026811Y0001695D01*
X0026521Y0001778D01*
X0026232Y0001868D01*
X0025946Y0001965D01*
X0025662Y0002068D01*
X0025381Y0002179D01*
X0025103Y0002296D01*
X0024827Y0002420D01*
X0024555Y0002551D01*
X0024286Y0002688D01*
X0024020Y0002831D01*
X0023758Y0002981D01*
X0023499Y0003138D01*
X0023245Y0003300D01*
X0022994Y0003469D01*
X0022748Y0003643D01*
X0022505Y0003824D01*
X0022268Y0004010D01*
X0022034Y0004202D01*
X0021806Y0004400D01*
X0021582Y0004603D01*
X0021364Y0004811D01*
X0021150Y0005025D01*
X0020942Y0005243D01*
X0020739Y0005467D01*
X0020541Y0005695D01*
X0020349Y0005929D01*
X0020163Y0006166D01*
X0019982Y0006409D01*
X0019808Y0006655D01*
X0019639Y0006906D01*
X0019477Y0007160D01*
X0019320Y0007419D01*
X0019170Y0007681D01*
X0019027Y0007947D01*
X0018890Y0008216D01*
X0018759Y0008488D01*
X0018635Y0008764D01*
X0018518Y0009042D01*
X0018407Y0009323D01*
X0018304Y0009607D01*
X0018207Y0009893D01*
X0018117Y0010182D01*
X0018034Y0010472D01*
X0017958Y0010765D01*
X0017889Y0011059D01*
X0017828Y0011354D01*
X0017773Y0011652D01*
X0017726Y0011950D01*
X0017686Y0012249D01*
X0017653Y0012550D01*
X0017628Y0012851D01*
X0017610Y0013152D01*
X0017599Y0013454D01*
X0017595Y0013756D01*
X0060095Y0011256D02*
X0060095Y0016256D01*
X0267595Y0101256D02*
X0273220Y0101256D01*
X0273220Y0111256D02*
X0267595Y0111256D01*
X0267595Y0204256D02*
X0267095Y0204256D01*
D11*
X0017595Y0001256D02*
X0004918Y0001256D01*
X0012595Y0001512D02*
X0013619Y0011492D01*
X0013852Y0011492D02*
X0012595Y0001512D01*
X0011572Y0011492D01*
X0011338Y0011492D02*
X0013852Y0011492D01*
X0013107Y0011492D02*
X0012595Y0001512D01*
X0012083Y0011492D01*
X0011338Y0011492D02*
X0012595Y0001512D01*
X0012595Y0236000D01*
X0013619Y0226020D01*
X0013852Y0226020D02*
X0012595Y0236000D01*
X0011572Y0226020D01*
X0011338Y0226020D02*
X0013852Y0226020D01*
X0013107Y0226020D02*
X0012595Y0236000D01*
X0012083Y0226020D01*
X0011338Y0226020D02*
X0012595Y0236000D01*
X0017595Y0236256D02*
X0017595Y0248933D01*
X0017851Y0241256D02*
X0027831Y0240232D01*
X0027831Y0239999D02*
X0017851Y0241256D01*
X0027831Y0242280D01*
X0027831Y0242513D02*
X0027831Y0239999D01*
X0027831Y0240744D02*
X0017851Y0241256D01*
X0027831Y0241768D01*
X0027831Y0242513D02*
X0017851Y0241256D01*
X0354839Y0241256D01*
X0344859Y0240232D01*
X0344859Y0239999D02*
X0354839Y0241256D01*
X0344859Y0242280D01*
X0344859Y0242513D02*
X0344859Y0239999D01*
X0344859Y0240744D02*
X0354839Y0241256D01*
X0344859Y0241768D01*
X0344859Y0242513D02*
X0354839Y0241256D01*
X0355095Y0236256D02*
X0355095Y0248933D01*
X0017595Y0236256D02*
X0004918Y0236256D01*
D12*
X0006831Y0137903D02*
X0010033Y0137903D01*
X0010033Y0135767D02*
X0006831Y0135767D01*
X0005763Y0136835D01*
X0006831Y0137903D01*
X0006831Y0135767D02*
X0005763Y0134700D01*
X0005763Y0133632D01*
X0010033Y0133632D01*
X0010033Y0131457D02*
X0006831Y0131457D01*
X0005763Y0130389D01*
X0006831Y0129322D01*
X0010033Y0129322D01*
X0010033Y0127187D02*
X0005763Y0127187D01*
X0005763Y0128254D01*
X0006831Y0129322D01*
X0006831Y0125012D02*
X0006831Y0121809D01*
X0005763Y0120741D01*
X0004695Y0120741D01*
X0003628Y0121809D01*
X0003628Y0123944D01*
X0004695Y0125012D01*
X0008966Y0125012D01*
X0010033Y0123944D01*
X0010033Y0121809D01*
X0008966Y0120741D01*
X0008966Y0118566D02*
X0007898Y0118566D01*
X0006831Y0117498D01*
X0006831Y0114296D01*
X0008966Y0114296D01*
X0010033Y0115363D01*
X0010033Y0117498D01*
X0008966Y0118566D01*
X0004695Y0116431D02*
X0006831Y0114296D01*
X0004695Y0116431D02*
X0003628Y0118566D01*
X0008966Y0112141D02*
X0010033Y0112141D01*
X0010033Y0111073D01*
X0008966Y0111073D01*
X0008966Y0112141D01*
X0008966Y0108898D02*
X0004695Y0108898D01*
X0003628Y0107830D01*
X0003628Y0105695D01*
X0004695Y0104628D01*
X0005763Y0104628D01*
X0006831Y0105695D01*
X0006831Y0108898D01*
X0008966Y0108898D02*
X0010033Y0107830D01*
X0010033Y0105695D01*
X0008966Y0104628D01*
X0008966Y0102452D02*
X0006831Y0102452D01*
X0005763Y0101385D01*
X0005763Y0100317D01*
X0006831Y0098182D01*
X0003628Y0098182D01*
X0003628Y0102452D01*
X0008966Y0102452D02*
X0010033Y0101385D01*
X0010033Y0099250D01*
X0008966Y0098182D01*
X0165771Y0244885D02*
X0165771Y0245953D01*
X0166839Y0247020D01*
X0168974Y0247020D01*
X0170042Y0245953D01*
X0170042Y0244885D01*
X0168974Y0243818D01*
X0166839Y0243818D01*
X0165771Y0244885D01*
X0166839Y0247020D02*
X0165771Y0248088D01*
X0165771Y0249156D01*
X0166839Y0250223D01*
X0168974Y0250223D01*
X0170042Y0249156D01*
X0170042Y0248088D01*
X0168974Y0247020D01*
X0172217Y0247020D02*
X0172217Y0250223D01*
X0176487Y0250223D01*
X0175419Y0248088D02*
X0174352Y0248088D01*
X0172217Y0247020D01*
X0172217Y0244885D02*
X0173284Y0243818D01*
X0175419Y0243818D01*
X0176487Y0244885D01*
X0176487Y0247020D01*
X0175419Y0248088D01*
X0178662Y0244885D02*
X0179730Y0244885D01*
X0179730Y0243818D01*
X0178662Y0243818D01*
X0178662Y0244885D01*
X0181885Y0244885D02*
X0181885Y0243818D01*
X0181885Y0244885D02*
X0186155Y0249156D01*
X0186155Y0250223D01*
X0181885Y0250223D01*
X0188330Y0249156D02*
X0189398Y0250223D01*
X0191533Y0250223D01*
X0192601Y0249156D01*
X0192601Y0248088D01*
X0191533Y0247020D01*
X0192601Y0245953D01*
X0192601Y0244885D01*
X0191533Y0243818D01*
X0189398Y0243818D01*
X0188330Y0244885D01*
X0190466Y0247020D02*
X0191533Y0247020D01*
X0194776Y0248088D02*
X0194776Y0243818D01*
X0196911Y0243818D02*
X0196911Y0247020D01*
X0197979Y0248088D01*
X0199046Y0247020D01*
X0199046Y0243818D01*
X0201221Y0243818D02*
X0201221Y0248088D01*
X0202289Y0248088D01*
X0203357Y0247020D01*
X0204424Y0248088D01*
X0205492Y0247020D01*
X0205492Y0243818D01*
X0203357Y0243818D02*
X0203357Y0247020D01*
X0196911Y0247020D02*
X0195844Y0248088D01*
X0194776Y0248088D01*
D13*
X0107595Y0213756D02*
X0095095Y0213756D01*
X0080095Y0198756D01*
X0080095Y0166256D01*
X0070095Y0156256D01*
X0030095Y0156256D01*
D14*
X0126451Y0149531D03*
X0128051Y0153931D03*
X0128051Y0154331D03*
X0128451Y0155131D03*
X0133251Y0155131D03*
X0133651Y0155531D03*
X0128851Y0165131D03*
X0129251Y0165531D03*
X0129651Y0165931D03*
X0132451Y0171131D03*
X0132451Y0171531D03*
X0132451Y0171931D03*
X0134851Y0176331D03*
X0128851Y0187531D03*
X0128051Y0189531D03*
X0135251Y0191131D03*
X0145651Y0203931D03*
X0170051Y0213131D03*
X0178051Y0213931D03*
X0175251Y0219131D03*
X0189251Y0213931D03*
X0191651Y0219131D03*
X0197251Y0213131D03*
X0210451Y0200731D03*
X0210051Y0198731D03*
X0210451Y0195931D03*
X0216051Y0200331D03*
X0216451Y0201531D03*
X0220051Y0192331D03*
X0210451Y0188731D03*
X0210451Y0188331D03*
X0210051Y0186731D03*
X0208851Y0191531D03*
X0207251Y0192731D03*
X0201651Y0197131D03*
X0201651Y0197531D03*
X0202051Y0197931D03*
X0202051Y0198331D03*
X0198451Y0192731D03*
X0182451Y0182731D03*
X0182051Y0182331D03*
X0174451Y0185131D03*
X0174451Y0185931D03*
X0213651Y0170331D03*
X0229251Y0179931D03*
X0235251Y0175131D03*
X0242051Y0182331D03*
X0243651Y0189131D03*
X0233251Y0150731D03*
X0232451Y0149531D03*
X0230451Y0147531D03*
X0238851Y0144731D03*
X0241251Y0146731D03*
X0242451Y0146731D03*
X0219251Y0145931D03*
X0205251Y0141131D03*
X0153251Y0141931D03*
X0137651Y0139131D03*
X0137251Y0135131D03*
X0136851Y0144731D03*
X0128851Y0116331D03*
X0128451Y0099531D03*
X0128051Y0098731D03*
X0128051Y0098331D03*
X0132851Y0099131D03*
X0133251Y0099531D03*
X0133651Y0099931D03*
X0133251Y0087931D03*
X0128451Y0087931D03*
X0128051Y0087131D03*
X0128051Y0086731D03*
X0132451Y0065531D03*
X0132451Y0065131D03*
X0132451Y0064731D03*
X0130451Y0060331D03*
X0130051Y0059931D03*
X0129651Y0059531D03*
X0129251Y0059131D03*
X0128851Y0058731D03*
X0129251Y0047931D03*
X0128851Y0043931D03*
X0138851Y0047531D03*
X0139651Y0047531D03*
X0139251Y0043531D03*
X0170051Y0021131D03*
X0178051Y0020331D03*
X0178051Y0022331D03*
X0180851Y0014731D03*
X0186451Y0014731D03*
X0189251Y0020331D03*
X0189251Y0022331D03*
X0197251Y0021131D03*
X0259651Y0081131D03*
D15*
X0225051Y0058331D03*
X0221451Y0039131D03*
X0183851Y0015131D03*
X0153451Y0135931D03*
X0153451Y0136331D03*
X0153451Y0136731D03*
X0153051Y0137531D03*
X0187851Y0139131D03*
X0188251Y0139531D03*
D16*
X0154451Y0119131D03*
X0129651Y0131531D03*
X0147651Y0095931D03*
X0148051Y0084731D03*
X0145651Y0074731D03*
X0210051Y0051931D03*
X0223251Y0041131D03*
X0183651Y0015531D03*
D17*
X0183451Y0015931D03*
X0145051Y0093531D03*
X0145051Y0104731D03*
X0190251Y0125531D03*
X0190651Y0127131D03*
D18*
X0193651Y0129131D03*
X0195251Y0135131D03*
X0181651Y0024331D03*
X0183651Y0016331D03*
D19*
X0183651Y0016731D03*
D20*
X0183651Y0017131D03*
X0166051Y0052331D03*
X0166051Y0052731D03*
X0196051Y0122731D03*
X0198051Y0130731D03*
X0198051Y0131531D03*
X0138851Y0131131D03*
D21*
X0140851Y0130331D03*
X0214851Y0057131D03*
X0219651Y0053131D03*
X0183651Y0017531D03*
X0168051Y0045531D03*
X0168051Y0045931D03*
D22*
X0169651Y0041131D03*
X0173651Y0029131D03*
X0183651Y0017931D03*
X0197651Y0115531D03*
D23*
X0198651Y0113531D03*
X0172251Y0030331D03*
X0183451Y0018331D03*
D24*
X0183651Y0018731D03*
X0200851Y0117131D03*
X0200851Y0117531D03*
X0200851Y0117931D03*
D25*
X0168451Y0033531D03*
X0183651Y0019131D03*
D26*
X0183651Y0019531D03*
X0166851Y0035131D03*
D27*
X0164851Y0037131D03*
X0183651Y0019931D03*
X0179651Y0060731D03*
D28*
X0147251Y0075931D03*
X0147251Y0076331D03*
X0147251Y0082331D03*
X0147251Y0083531D03*
X0223251Y0041931D03*
X0203651Y0020331D03*
X0183651Y0023131D03*
X0163651Y0020331D03*
D29*
X0161251Y0020731D03*
X0206051Y0020731D03*
X0222851Y0040731D03*
X0210051Y0051531D03*
X0148451Y0085131D03*
X0148051Y0096731D03*
X0129251Y0131931D03*
X0129251Y0132331D03*
X0242051Y0113531D03*
X0183651Y0218731D03*
D30*
X0191851Y0143931D03*
X0191451Y0143531D03*
X0210251Y0050331D03*
X0214651Y0046731D03*
X0208651Y0021131D03*
X0158651Y0021131D03*
D31*
X0156851Y0021531D03*
X0183651Y0022731D03*
X0156851Y0117531D03*
X0156851Y0117931D03*
X0190051Y0141931D03*
D32*
X0189851Y0141531D03*
X0157051Y0117131D03*
X0157051Y0116731D03*
X0157051Y0116331D03*
X0135851Y0192331D03*
X0157051Y0212731D03*
X0210251Y0212731D03*
X0221851Y0039531D03*
X0210251Y0021531D03*
D33*
X0211851Y0021931D03*
X0155451Y0021931D03*
X0189051Y0140331D03*
D34*
X0187651Y0138731D03*
X0186851Y0137131D03*
X0153251Y0137131D03*
X0152851Y0137931D03*
X0153251Y0135531D03*
X0245251Y0114731D03*
X0213251Y0022331D03*
X0154051Y0022331D03*
X0154051Y0211931D03*
X0213251Y0211931D03*
D35*
X0239651Y0199531D03*
X0240051Y0199131D03*
X0240851Y0198731D03*
X0241251Y0198331D03*
X0242451Y0197531D03*
X0190051Y0151531D03*
X0189651Y0150731D03*
X0188451Y0149131D03*
X0202851Y0137131D03*
X0249251Y0118331D03*
X0248051Y0078731D03*
X0242451Y0036731D03*
X0242051Y0036331D03*
X0241251Y0035931D03*
X0240851Y0035531D03*
X0239651Y0034731D03*
X0183651Y0022331D03*
X0129251Y0042731D03*
X0124851Y0036731D03*
X0125251Y0036331D03*
X0126451Y0035531D03*
X0123651Y0037531D03*
X0121651Y0061531D03*
X0121651Y0063131D03*
X0121651Y0082331D03*
X0140051Y0114731D03*
X0121651Y0139531D03*
X0121651Y0167931D03*
X0121651Y0169531D03*
X0133251Y0174331D03*
X0124851Y0197531D03*
X0126051Y0198331D03*
X0126451Y0198731D03*
X0127651Y0199531D03*
D36*
X0152651Y0138331D03*
X0187051Y0137931D03*
X0187051Y0137531D03*
X0187451Y0138331D03*
X0214651Y0022731D03*
X0152651Y0022731D03*
D37*
X0151251Y0023131D03*
X0125251Y0049531D03*
X0125251Y0050331D03*
X0125251Y0050731D03*
X0125251Y0051531D03*
X0216051Y0023131D03*
X0220851Y0038731D03*
X0245651Y0115131D03*
X0152851Y0135131D03*
X0134451Y0192731D03*
D38*
X0150051Y0210731D03*
X0152451Y0134731D03*
X0151651Y0131531D03*
X0125651Y0048731D03*
X0150051Y0023531D03*
X0217251Y0023531D03*
D39*
X0183651Y0023531D03*
X0191651Y0128331D03*
D40*
X0246251Y0115531D03*
X0142651Y0072731D03*
X0136251Y0067931D03*
X0125851Y0048331D03*
X0147851Y0024331D03*
X0149051Y0023931D03*
X0218251Y0023931D03*
X0218251Y0210331D03*
X0217051Y0210731D03*
X0149051Y0210331D03*
D41*
X0183651Y0217931D03*
X0194451Y0135931D03*
X0192051Y0124731D03*
X0152051Y0110331D03*
X0182851Y0023931D03*
D42*
X0146851Y0024731D03*
X0136451Y0068331D03*
X0136451Y0068731D03*
X0136451Y0069131D03*
X0219251Y0024331D03*
X0220451Y0024731D03*
X0152451Y0134331D03*
X0148051Y0209931D03*
X0219251Y0209931D03*
D43*
X0180851Y0024731D03*
D44*
X0145851Y0025131D03*
X0220251Y0038331D03*
X0221451Y0025131D03*
X0151851Y0131931D03*
X0152251Y0133931D03*
X0147051Y0209531D03*
X0220251Y0209531D03*
D45*
X0196651Y0133531D03*
X0179851Y0025131D03*
D46*
X0144851Y0025531D03*
X0132851Y0041931D03*
X0124051Y0079531D03*
X0151651Y0132331D03*
X0152051Y0133131D03*
X0152051Y0133531D03*
X0246851Y0115931D03*
X0234851Y0052731D03*
X0222451Y0025531D03*
X0221251Y0209131D03*
X0146051Y0209131D03*
D47*
X0179051Y0025531D03*
D48*
X0143851Y0025931D03*
X0133451Y0041131D03*
X0133051Y0041531D03*
X0142251Y0072331D03*
X0123851Y0077931D03*
X0123851Y0078331D03*
X0123851Y0078731D03*
X0123851Y0079131D03*
X0123851Y0079931D03*
X0123851Y0080331D03*
X0123851Y0080731D03*
X0123851Y0081131D03*
X0123851Y0081531D03*
X0151851Y0132731D03*
X0145051Y0208731D03*
X0222251Y0208731D03*
X0223451Y0025931D03*
D49*
X0178451Y0025931D03*
X0165251Y0056731D03*
X0165251Y0057131D03*
X0165251Y0057531D03*
X0165251Y0057931D03*
X0165251Y0058331D03*
X0196051Y0124331D03*
X0197251Y0130331D03*
X0197651Y0132331D03*
D50*
X0142051Y0185931D03*
X0144051Y0208331D03*
X0223251Y0208331D03*
X0123651Y0077531D03*
X0123651Y0077131D03*
X0142051Y0026731D03*
X0142851Y0026331D03*
X0224451Y0026331D03*
X0225251Y0026731D03*
D51*
X0177851Y0026331D03*
X0165851Y0053131D03*
X0165851Y0053531D03*
X0196251Y0123131D03*
D52*
X0196251Y0121531D03*
X0166251Y0051131D03*
X0166651Y0050331D03*
X0166651Y0049931D03*
X0177051Y0026731D03*
D53*
X0141051Y0027131D03*
X0140251Y0027531D03*
X0134651Y0039931D03*
X0134251Y0040331D03*
X0133851Y0040731D03*
X0123451Y0076331D03*
X0123451Y0076731D03*
X0123451Y0134331D03*
X0141851Y0185531D03*
X0142251Y0191131D03*
X0142251Y0207531D03*
X0143051Y0207931D03*
X0224251Y0207931D03*
X0225051Y0207531D03*
X0233851Y0185531D03*
X0247451Y0116331D03*
X0226251Y0027131D03*
D54*
X0176451Y0027131D03*
X0167251Y0047931D03*
X0167251Y0048331D03*
X0196451Y0120731D03*
D55*
X0196851Y0120331D03*
X0140451Y0130731D03*
X0212451Y0057931D03*
X0167651Y0047131D03*
X0167651Y0046731D03*
X0176051Y0027531D03*
D56*
X0226851Y0027531D03*
X0240051Y0063531D03*
X0123251Y0075531D03*
X0123251Y0075931D03*
X0123251Y0134731D03*
X0140451Y0206731D03*
X0141251Y0207131D03*
X0226051Y0207131D03*
X0226851Y0206731D03*
X0234051Y0183531D03*
X0234051Y0183131D03*
X0234051Y0182731D03*
D57*
X0234251Y0183931D03*
X0234251Y0184331D03*
X0234251Y0184731D03*
X0234251Y0185131D03*
X0227851Y0206331D03*
X0139451Y0206331D03*
X0138651Y0205931D03*
X0132651Y0193131D03*
X0141851Y0185131D03*
X0123051Y0119931D03*
X0123051Y0075131D03*
X0141451Y0071931D03*
X0137851Y0028731D03*
X0138651Y0028331D03*
X0139451Y0027931D03*
X0219451Y0037931D03*
X0227851Y0027931D03*
X0228651Y0028331D03*
X0247851Y0116731D03*
D58*
X0168251Y0045131D03*
X0175451Y0027931D03*
X0141051Y0129931D03*
D59*
X0141451Y0128731D03*
X0141451Y0128331D03*
X0141451Y0127931D03*
X0141451Y0127531D03*
X0141451Y0127131D03*
X0141451Y0126731D03*
X0141451Y0126331D03*
X0141451Y0125931D03*
X0141451Y0125531D03*
X0197451Y0119531D03*
X0168251Y0044331D03*
X0168651Y0043931D03*
X0174651Y0028331D03*
D60*
X0174051Y0028731D03*
X0169251Y0041931D03*
X0169251Y0042331D03*
X0142051Y0120331D03*
X0142051Y0120731D03*
X0142051Y0121131D03*
X0142051Y0121531D03*
X0142051Y0121931D03*
X0142051Y0122331D03*
X0142051Y0122731D03*
X0142051Y0123131D03*
X0142051Y0123531D03*
X0142051Y0123931D03*
X0183651Y0216331D03*
D61*
X0228451Y0205931D03*
X0229251Y0205531D03*
X0187251Y0145131D03*
X0141651Y0184731D03*
X0138051Y0205531D03*
X0122851Y0119531D03*
X0122851Y0074731D03*
X0122851Y0074331D03*
X0138451Y0069531D03*
X0229251Y0028731D03*
D62*
X0230251Y0029131D03*
X0231051Y0029531D03*
X0141051Y0071531D03*
X0139051Y0069931D03*
X0135451Y0029931D03*
X0136251Y0029531D03*
X0137051Y0029131D03*
X0122651Y0118731D03*
X0122651Y0119131D03*
X0187451Y0145931D03*
X0187851Y0146331D03*
X0187851Y0146731D03*
X0248251Y0117131D03*
X0210251Y0194731D03*
X0230251Y0205131D03*
X0137051Y0205131D03*
X0136251Y0204731D03*
D63*
X0173051Y0029531D03*
D64*
X0172651Y0029931D03*
X0183451Y0215931D03*
D65*
X0210451Y0195131D03*
X0210051Y0194331D03*
X0209651Y0193931D03*
X0230851Y0204731D03*
X0231651Y0204331D03*
X0232451Y0203931D03*
X0187251Y0145531D03*
X0135651Y0204331D03*
X0134851Y0203931D03*
X0134051Y0203531D03*
X0248051Y0079131D03*
X0233251Y0030731D03*
X0232451Y0030331D03*
X0231651Y0029931D03*
X0140451Y0071131D03*
X0139651Y0070331D03*
X0122451Y0073931D03*
X0132051Y0031931D03*
X0134051Y0030731D03*
X0134851Y0030331D03*
D66*
X0171651Y0030731D03*
D67*
X0133451Y0031131D03*
X0132651Y0031531D03*
X0131451Y0032331D03*
X0130651Y0032731D03*
X0141051Y0060731D03*
X0140251Y0070731D03*
X0233851Y0031131D03*
X0234651Y0031531D03*
X0235051Y0031931D03*
X0235851Y0032331D03*
X0248651Y0117531D03*
X0187851Y0147131D03*
X0235051Y0202331D03*
X0233851Y0203131D03*
X0233051Y0203531D03*
X0133451Y0203131D03*
X0132651Y0202731D03*
X0132251Y0202331D03*
X0131451Y0201931D03*
D68*
X0171051Y0031131D03*
D69*
X0170651Y0031531D03*
X0200651Y0118331D03*
X0183451Y0215531D03*
D70*
X0200651Y0116731D03*
X0170251Y0031931D03*
D71*
X0169851Y0032331D03*
D72*
X0169451Y0032731D03*
D73*
X0130051Y0033131D03*
X0129651Y0033531D03*
X0128851Y0033931D03*
X0122051Y0062331D03*
X0122051Y0062731D03*
X0122051Y0081931D03*
X0136451Y0149531D03*
X0134451Y0159931D03*
X0122051Y0168731D03*
X0122051Y0169131D03*
X0128851Y0200331D03*
X0129651Y0200731D03*
X0130051Y0201131D03*
X0130851Y0201531D03*
X0187651Y0147531D03*
X0248851Y0117931D03*
X0237651Y0200731D03*
X0236451Y0201531D03*
X0235651Y0201931D03*
X0234451Y0202731D03*
X0238451Y0033931D03*
X0237651Y0033531D03*
X0237251Y0033131D03*
X0236451Y0032731D03*
D74*
X0168851Y0033131D03*
X0183651Y0215131D03*
D75*
X0168251Y0033931D03*
D76*
X0141051Y0061131D03*
X0141051Y0061531D03*
X0121851Y0061931D03*
X0121851Y0073531D03*
X0128651Y0043531D03*
X0129051Y0043131D03*
X0129851Y0042331D03*
X0125851Y0035931D03*
X0127051Y0035131D03*
X0127451Y0034731D03*
X0128251Y0034331D03*
X0218651Y0037531D03*
X0239051Y0034331D03*
X0240251Y0035131D03*
X0121851Y0139131D03*
X0134251Y0160331D03*
X0121851Y0168331D03*
X0143851Y0190731D03*
X0128251Y0199931D03*
X0127051Y0199131D03*
X0189851Y0151131D03*
X0189451Y0150331D03*
X0189051Y0149931D03*
X0188651Y0149531D03*
X0188251Y0148731D03*
X0187851Y0148331D03*
X0187851Y0147931D03*
X0199051Y0145131D03*
X0199451Y0145531D03*
X0199851Y0145931D03*
X0238251Y0200331D03*
X0239051Y0199931D03*
X0237051Y0201131D03*
D77*
X0167651Y0034331D03*
D78*
X0167251Y0034731D03*
X0183651Y0214731D03*
D79*
X0166651Y0035531D03*
D80*
X0166051Y0035931D03*
D81*
X0165651Y0036331D03*
X0183651Y0214331D03*
D82*
X0165051Y0036731D03*
D83*
X0121251Y0047531D03*
X0130851Y0067131D03*
X0216451Y0036731D03*
X0212851Y0141931D03*
X0221251Y0147931D03*
X0228451Y0160731D03*
X0212051Y0164331D03*
X0194451Y0158331D03*
X0230051Y0182331D03*
X0235251Y0181131D03*
X0235251Y0180731D03*
X0238051Y0186731D03*
X0214451Y0196331D03*
X0207251Y0195531D03*
X0137251Y0186731D03*
X0122451Y0187931D03*
X0130851Y0173531D03*
X0130851Y0173131D03*
X0130451Y0144731D03*
D84*
X0136651Y0149931D03*
X0134251Y0160731D03*
X0121451Y0167531D03*
X0121451Y0169931D03*
X0121451Y0177131D03*
X0120651Y0194331D03*
X0122251Y0195531D03*
X0122651Y0195931D03*
X0123051Y0196331D03*
X0123851Y0196731D03*
X0124251Y0197131D03*
X0125451Y0197931D03*
X0190251Y0151931D03*
X0190651Y0152331D03*
X0155851Y0139531D03*
X0136251Y0134331D03*
X0121451Y0139931D03*
X0121451Y0140331D03*
X0121451Y0118331D03*
X0121451Y0105931D03*
X0121451Y0105531D03*
X0121451Y0105131D03*
X0121451Y0094331D03*
X0121451Y0093931D03*
X0121451Y0093531D03*
X0121451Y0082731D03*
X0121451Y0073131D03*
X0121451Y0063531D03*
X0121451Y0061131D03*
X0139851Y0067531D03*
X0141051Y0062331D03*
X0141051Y0061931D03*
X0122251Y0038731D03*
X0122651Y0038331D03*
X0123051Y0037931D03*
X0124251Y0037131D03*
X0121451Y0039131D03*
X0121051Y0039531D03*
X0120651Y0039931D03*
X0243051Y0037131D03*
X0243451Y0037531D03*
X0244251Y0037931D03*
X0244651Y0038331D03*
X0245051Y0038731D03*
X0246651Y0039931D03*
X0245051Y0195531D03*
X0243451Y0196731D03*
X0243051Y0197131D03*
X0241851Y0197931D03*
D85*
X0255451Y0186331D03*
X0256251Y0185531D03*
X0256651Y0185131D03*
X0257051Y0184331D03*
X0257451Y0183931D03*
X0257851Y0183531D03*
X0258251Y0183131D03*
X0258651Y0182731D03*
X0259051Y0182331D03*
X0260651Y0180331D03*
X0219451Y0183931D03*
X0211051Y0159131D03*
X0210251Y0157931D03*
X0207851Y0155531D03*
X0203051Y0149531D03*
X0193051Y0155531D03*
X0147051Y0139531D03*
X0130651Y0147931D03*
X0120651Y0143931D03*
X0120651Y0143531D03*
X0120651Y0152331D03*
X0120651Y0152731D03*
X0120651Y0153131D03*
X0120651Y0153531D03*
X0120651Y0153931D03*
X0120651Y0154331D03*
X0120651Y0154731D03*
X0120651Y0155131D03*
X0120651Y0155531D03*
X0120651Y0155931D03*
X0120651Y0156331D03*
X0120651Y0156731D03*
X0120651Y0161531D03*
X0120651Y0165131D03*
X0120651Y0165531D03*
X0104651Y0177931D03*
X0106251Y0179931D03*
X0106651Y0180331D03*
X0107451Y0181531D03*
X0107851Y0181931D03*
X0108251Y0182331D03*
X0108651Y0182731D03*
X0109051Y0183131D03*
X0109451Y0183531D03*
X0110651Y0185131D03*
X0111051Y0185531D03*
X0111851Y0186331D03*
X0120251Y0184331D03*
X0120651Y0184731D03*
X0120651Y0182331D03*
X0120651Y0181931D03*
X0120651Y0181531D03*
X0120651Y0181131D03*
X0120651Y0180731D03*
X0120651Y0180331D03*
X0139051Y0186331D03*
X0120651Y0115531D03*
X0120651Y0115131D03*
X0120651Y0114731D03*
X0120651Y0114331D03*
X0120651Y0113931D03*
X0120651Y0113531D03*
X0120651Y0111131D03*
X0120651Y0110731D03*
X0120651Y0110331D03*
X0120651Y0109931D03*
X0120651Y0109531D03*
X0120651Y0109131D03*
X0120651Y0101131D03*
X0120651Y0100731D03*
X0120651Y0100331D03*
X0120651Y0099931D03*
X0120651Y0099531D03*
X0120651Y0099131D03*
X0120651Y0098731D03*
X0120651Y0098331D03*
X0120651Y0097931D03*
X0120651Y0097531D03*
X0120651Y0097131D03*
X0120651Y0096731D03*
X0120651Y0089531D03*
X0120651Y0089131D03*
X0120651Y0088731D03*
X0120651Y0088331D03*
X0120651Y0087931D03*
X0120651Y0087531D03*
X0120651Y0087131D03*
X0120651Y0086731D03*
X0120651Y0086331D03*
X0120651Y0085931D03*
X0120651Y0085531D03*
X0120651Y0085131D03*
X0120651Y0084731D03*
X0140651Y0063931D03*
X0140651Y0063531D03*
X0120651Y0059131D03*
X0120651Y0058731D03*
X0120651Y0055531D03*
X0120651Y0055131D03*
X0111051Y0048731D03*
X0110651Y0049131D03*
X0111851Y0047931D03*
X0109051Y0051131D03*
X0108651Y0051531D03*
X0108251Y0051931D03*
X0107851Y0052331D03*
X0107451Y0052731D03*
X0107051Y0053131D03*
X0106651Y0053931D03*
X0106251Y0054331D03*
X0105851Y0054731D03*
X0104651Y0056331D03*
X0217851Y0037131D03*
X0255451Y0047931D03*
X0256251Y0048731D03*
X0256651Y0049131D03*
X0257851Y0050731D03*
X0258251Y0051131D03*
X0258651Y0051531D03*
X0259051Y0051931D03*
X0259451Y0052331D03*
X0260651Y0053931D03*
X0247851Y0078331D03*
D86*
X0164451Y0037531D03*
X0164051Y0037931D03*
D87*
X0163651Y0038331D03*
X0163251Y0038731D03*
X0180051Y0061531D03*
D88*
X0180451Y0061931D03*
X0162451Y0039531D03*
X0162851Y0039131D03*
D89*
X0140051Y0067131D03*
X0121251Y0069931D03*
X0121251Y0070331D03*
X0121251Y0070731D03*
X0121251Y0072331D03*
X0121251Y0072731D03*
X0121251Y0063931D03*
X0121251Y0060731D03*
X0121251Y0054331D03*
X0116451Y0043531D03*
X0116851Y0043131D03*
X0117251Y0042731D03*
X0117651Y0042331D03*
X0118851Y0041531D03*
X0119251Y0041131D03*
X0119651Y0040731D03*
X0120051Y0040331D03*
X0121251Y0083131D03*
X0121251Y0092731D03*
X0121251Y0093131D03*
X0121251Y0094731D03*
X0121251Y0104331D03*
X0121251Y0104731D03*
X0121251Y0106331D03*
X0121251Y0106731D03*
X0121251Y0117931D03*
X0121251Y0140731D03*
X0121251Y0141131D03*
X0130851Y0148731D03*
X0134051Y0161131D03*
X0121251Y0160331D03*
X0121251Y0159931D03*
X0121251Y0166731D03*
X0121251Y0167131D03*
X0121251Y0170331D03*
X0121251Y0176331D03*
X0121251Y0176731D03*
X0121251Y0177531D03*
X0121251Y0177931D03*
X0133251Y0174731D03*
X0118851Y0192731D03*
X0119251Y0193131D03*
X0119651Y0193531D03*
X0120051Y0193931D03*
X0121251Y0194731D03*
X0121651Y0195131D03*
X0190851Y0152731D03*
X0200451Y0146331D03*
X0200851Y0146731D03*
X0201651Y0147531D03*
X0156051Y0139931D03*
X0220451Y0185531D03*
X0220451Y0185931D03*
X0220851Y0186731D03*
X0220851Y0187131D03*
X0244051Y0196331D03*
X0244451Y0195931D03*
X0245651Y0195131D03*
X0246051Y0194731D03*
X0246451Y0194331D03*
X0247251Y0193931D03*
X0247651Y0193531D03*
X0248051Y0193131D03*
X0248451Y0192731D03*
X0249251Y0118731D03*
X0248451Y0041531D03*
X0248051Y0041131D03*
X0247651Y0040731D03*
X0247251Y0040331D03*
X0246051Y0039531D03*
X0245651Y0039131D03*
D90*
X0219651Y0055131D03*
X0169251Y0039931D03*
D91*
X0210451Y0049931D03*
X0210851Y0049531D03*
X0222051Y0039931D03*
X0144451Y0073931D03*
X0156851Y0115131D03*
X0190851Y0142731D03*
X0191251Y0143131D03*
X0243651Y0113931D03*
X0208451Y0213131D03*
X0158851Y0213131D03*
D92*
X0198051Y0116331D03*
X0198051Y0113931D03*
X0219651Y0054731D03*
X0169651Y0040331D03*
D93*
X0222451Y0040331D03*
X0149251Y0087131D03*
X0149251Y0087531D03*
X0149251Y0087931D03*
X0149251Y0090731D03*
X0149251Y0091131D03*
X0149251Y0099131D03*
X0149251Y0099531D03*
X0149651Y0101531D03*
X0149651Y0101931D03*
X0149251Y0102331D03*
X0149251Y0102731D03*
X0148851Y0103131D03*
D94*
X0197851Y0115931D03*
X0218251Y0055931D03*
X0169451Y0040731D03*
D95*
X0169451Y0041531D03*
X0219851Y0054331D03*
X0197451Y0114331D03*
X0197451Y0114731D03*
X0197451Y0115131D03*
D96*
X0147051Y0095131D03*
X0147451Y0081931D03*
X0147451Y0081531D03*
X0147451Y0077531D03*
X0147451Y0077131D03*
X0147451Y0076731D03*
X0146651Y0075531D03*
X0210251Y0052331D03*
X0223451Y0041531D03*
X0203451Y0213931D03*
X0163851Y0213931D03*
D97*
X0118251Y0192331D03*
X0117851Y0191931D03*
X0117451Y0191531D03*
X0117051Y0191131D03*
X0116651Y0190731D03*
X0115451Y0189931D03*
X0115051Y0189531D03*
X0114651Y0189131D03*
X0114251Y0188731D03*
X0121051Y0178731D03*
X0121051Y0178331D03*
X0121051Y0175931D03*
X0121051Y0175531D03*
X0121051Y0175131D03*
X0121051Y0170731D03*
X0121051Y0166331D03*
X0121051Y0160731D03*
X0121051Y0159531D03*
X0121051Y0159131D03*
X0121051Y0158731D03*
X0121051Y0151131D03*
X0130651Y0148331D03*
X0121051Y0141931D03*
X0121051Y0141531D03*
X0136651Y0134731D03*
X0121051Y0117531D03*
X0121051Y0117131D03*
X0121051Y0107531D03*
X0121051Y0107131D03*
X0121051Y0103931D03*
X0121051Y0103531D03*
X0121051Y0103131D03*
X0121051Y0095131D03*
X0121051Y0092331D03*
X0121051Y0091931D03*
X0121051Y0091531D03*
X0121051Y0083531D03*
X0121051Y0071931D03*
X0121051Y0071531D03*
X0121051Y0071131D03*
X0121051Y0069531D03*
X0121051Y0069131D03*
X0121051Y0068731D03*
X0121051Y0064331D03*
X0121051Y0060331D03*
X0112251Y0047531D03*
X0112651Y0047131D03*
X0113051Y0046731D03*
X0113451Y0046331D03*
X0113851Y0045931D03*
X0114251Y0045531D03*
X0114651Y0045131D03*
X0115051Y0044731D03*
X0115451Y0044331D03*
X0115851Y0043931D03*
X0118251Y0041931D03*
X0141051Y0062731D03*
X0140251Y0066731D03*
X0249051Y0041931D03*
X0249451Y0042331D03*
X0249851Y0042731D03*
X0250251Y0043131D03*
X0250651Y0043531D03*
X0251851Y0044331D03*
X0252251Y0044731D03*
X0252651Y0045131D03*
X0253051Y0045531D03*
X0201451Y0147131D03*
X0201851Y0147931D03*
X0202251Y0148331D03*
X0192651Y0154731D03*
X0192251Y0154331D03*
X0191851Y0153931D03*
X0191051Y0153131D03*
X0208651Y0155931D03*
X0209051Y0156331D03*
X0209451Y0156731D03*
X0219851Y0184731D03*
X0220251Y0185131D03*
X0220651Y0186331D03*
X0249051Y0192331D03*
X0249451Y0191931D03*
X0249851Y0191531D03*
X0250251Y0191131D03*
X0250651Y0190731D03*
X0133051Y0175131D03*
D98*
X0132451Y0176331D03*
X0129651Y0183131D03*
X0130051Y0184731D03*
X0123251Y0188731D03*
X0147251Y0189931D03*
X0176051Y0185531D03*
X0206051Y0193131D03*
X0207651Y0196331D03*
X0208051Y0196731D03*
X0208051Y0197131D03*
X0213251Y0191931D03*
X0219251Y0189931D03*
X0218051Y0178331D03*
X0212451Y0165131D03*
X0228851Y0161531D03*
X0220451Y0147131D03*
X0209251Y0145131D03*
X0194851Y0160731D03*
X0214851Y0125131D03*
X0227651Y0120731D03*
X0140051Y0149131D03*
X0136851Y0151531D03*
X0138051Y0159531D03*
X0133651Y0162331D03*
X0130451Y0143531D03*
X0131251Y0092331D03*
X0138051Y0042331D03*
D99*
X0147051Y0083131D03*
X0146651Y0094731D03*
X0217851Y0046331D03*
X0222651Y0042331D03*
D100*
X0228251Y0046731D03*
X0224251Y0062731D03*
X0144651Y0060331D03*
X0132651Y0055531D03*
X0121451Y0046731D03*
X0138251Y0042731D03*
X0138651Y0043131D03*
X0130651Y0091931D03*
X0131051Y0103931D03*
X0129451Y0111531D03*
X0129851Y0111931D03*
X0129851Y0112331D03*
X0129851Y0113531D03*
X0129851Y0113931D03*
X0136651Y0115531D03*
X0137051Y0141131D03*
X0137051Y0141531D03*
X0137051Y0141931D03*
X0130251Y0143131D03*
X0137051Y0151931D03*
X0137451Y0152331D03*
X0140251Y0148731D03*
X0148651Y0139931D03*
X0131051Y0159531D03*
X0133851Y0162731D03*
X0134251Y0163131D03*
X0136651Y0173931D03*
X0129451Y0182731D03*
X0129851Y0183531D03*
X0129851Y0183931D03*
X0129851Y0185131D03*
X0129851Y0185531D03*
X0123851Y0189531D03*
X0123451Y0189131D03*
X0129851Y0194331D03*
X0144251Y0202731D03*
X0147451Y0186331D03*
X0194651Y0161131D03*
X0212651Y0165531D03*
X0217851Y0177931D03*
X0229051Y0180331D03*
X0229451Y0180731D03*
X0229451Y0181131D03*
X0229851Y0181531D03*
X0208251Y0197531D03*
X0199051Y0210331D03*
X0229451Y0162331D03*
X0229051Y0161931D03*
X0211051Y0147531D03*
X0210651Y0146731D03*
X0210251Y0146331D03*
X0209851Y0145931D03*
X0209451Y0145531D03*
X0209051Y0144731D03*
X0208651Y0144331D03*
X0208251Y0143931D03*
D101*
X0141851Y0124331D03*
X0216651Y0056331D03*
X0219851Y0053931D03*
X0169051Y0043131D03*
X0169051Y0042731D03*
D102*
X0200851Y0058331D03*
X0210451Y0052731D03*
X0221651Y0043531D03*
X0222051Y0043131D03*
X0222451Y0042731D03*
D103*
X0137451Y0043531D03*
X0130651Y0060731D03*
X0131051Y0061131D03*
X0131451Y0061531D03*
X0131851Y0061931D03*
X0132251Y0062731D03*
X0132651Y0063131D03*
X0132651Y0063531D03*
X0132651Y0063931D03*
X0132651Y0064331D03*
X0132251Y0065931D03*
X0133051Y0073931D03*
X0130651Y0081931D03*
X0128251Y0087531D03*
X0128651Y0088331D03*
X0128651Y0088731D03*
X0133851Y0088331D03*
X0128251Y0099131D03*
X0128651Y0099931D03*
X0128651Y0100331D03*
X0129051Y0109131D03*
X0129051Y0115931D03*
X0127851Y0118331D03*
X0130651Y0139931D03*
X0130651Y0140331D03*
X0137051Y0144331D03*
X0127051Y0149131D03*
X0128251Y0154731D03*
X0128651Y0155531D03*
X0128651Y0155931D03*
X0130251Y0166331D03*
X0130651Y0166731D03*
X0131051Y0167131D03*
X0131051Y0167531D03*
X0131451Y0167931D03*
X0131851Y0168331D03*
X0132251Y0168731D03*
X0132251Y0169131D03*
X0132651Y0169531D03*
X0132651Y0169931D03*
X0132651Y0170331D03*
X0132651Y0170731D03*
X0132251Y0172331D03*
X0129051Y0180331D03*
X0129051Y0187131D03*
X0130651Y0195531D03*
X0131051Y0195931D03*
X0131851Y0196331D03*
X0177451Y0189131D03*
X0181451Y0183531D03*
X0180251Y0182331D03*
X0199051Y0193131D03*
X0199051Y0193531D03*
X0199451Y0193931D03*
X0199851Y0195131D03*
X0199851Y0195531D03*
X0201451Y0196731D03*
X0204651Y0192331D03*
X0204251Y0191931D03*
X0203851Y0191531D03*
X0209051Y0191931D03*
X0211451Y0188731D03*
X0210251Y0187931D03*
X0210251Y0187531D03*
X0210251Y0187131D03*
X0209851Y0186331D03*
X0209851Y0185931D03*
X0214651Y0191131D03*
X0215051Y0191531D03*
X0213051Y0197531D03*
X0210651Y0199931D03*
X0210651Y0200331D03*
X0210251Y0201131D03*
X0211051Y0202331D03*
X0211051Y0202731D03*
X0195051Y0209531D03*
X0195051Y0209931D03*
X0182251Y0211131D03*
X0228651Y0189931D03*
X0233451Y0186331D03*
X0240651Y0189931D03*
X0243851Y0189531D03*
X0243851Y0188331D03*
X0242251Y0185131D03*
X0242251Y0184731D03*
X0242251Y0182731D03*
X0235451Y0175531D03*
X0233051Y0178731D03*
X0235051Y0172331D03*
X0218651Y0175131D03*
X0213451Y0169931D03*
X0213451Y0169531D03*
X0195851Y0164331D03*
X0213451Y0151131D03*
X0215051Y0145131D03*
X0232251Y0149131D03*
X0232651Y0149931D03*
X0233051Y0150331D03*
X0242651Y0147531D03*
X0215051Y0126331D03*
X0228251Y0122731D03*
X0156651Y0142731D03*
X0153451Y0141531D03*
D104*
X0141651Y0125131D03*
X0141651Y0124731D03*
X0168851Y0043531D03*
D105*
X0138051Y0060331D03*
X0137251Y0059131D03*
X0131251Y0054331D03*
X0121251Y0047931D03*
X0125651Y0043931D03*
X0086851Y0093131D03*
X0086451Y0095131D03*
X0086051Y0096731D03*
X0086051Y0097131D03*
X0085651Y0098731D03*
X0085651Y0099131D03*
X0085251Y0100731D03*
X0085251Y0101131D03*
X0085251Y0101531D03*
X0084851Y0103131D03*
X0084851Y0103931D03*
X0084851Y0104331D03*
X0084451Y0107131D03*
X0084451Y0107531D03*
X0084051Y0110731D03*
X0084051Y0111131D03*
X0084051Y0111931D03*
X0084051Y0112331D03*
X0084051Y0112731D03*
X0084051Y0113131D03*
X0084051Y0113531D03*
X0084051Y0113931D03*
X0084051Y0114731D03*
X0084051Y0115131D03*
X0084051Y0115531D03*
X0084051Y0115931D03*
X0084051Y0116331D03*
X0084051Y0116731D03*
X0084051Y0117131D03*
X0084051Y0117531D03*
X0084051Y0117931D03*
X0084051Y0118331D03*
X0084051Y0118731D03*
X0084051Y0119131D03*
X0084051Y0119531D03*
X0084051Y0120331D03*
X0084051Y0120731D03*
X0084051Y0121131D03*
X0084051Y0121531D03*
X0084051Y0121931D03*
X0084051Y0122331D03*
X0084051Y0123131D03*
X0084051Y0123531D03*
X0084451Y0126731D03*
X0084451Y0127131D03*
X0084851Y0129531D03*
X0084851Y0129931D03*
X0084851Y0130331D03*
X0084851Y0131131D03*
X0085251Y0132731D03*
X0085251Y0133131D03*
X0085251Y0133531D03*
X0085651Y0135131D03*
X0085651Y0135531D03*
X0086051Y0137131D03*
X0086051Y0137531D03*
X0086451Y0139131D03*
X0086851Y0141131D03*
X0119651Y0137931D03*
X0119651Y0137531D03*
X0119651Y0137131D03*
X0119651Y0136731D03*
X0119651Y0136331D03*
X0119651Y0135931D03*
X0130451Y0145531D03*
X0131251Y0173931D03*
X0121651Y0186731D03*
X0125651Y0190331D03*
X0194851Y0159531D03*
X0194851Y0159131D03*
X0195251Y0159931D03*
X0195251Y0160331D03*
X0194051Y0157531D03*
X0212051Y0163131D03*
X0224451Y0153931D03*
X0222851Y0150731D03*
X0222051Y0149131D03*
X0227251Y0158731D03*
X0227651Y0159531D03*
X0218851Y0179531D03*
X0219251Y0187531D03*
X0219651Y0188331D03*
X0219651Y0188731D03*
X0237651Y0185931D03*
X0235651Y0179931D03*
X0279251Y0145131D03*
X0279651Y0143931D03*
X0280051Y0142331D03*
X0280451Y0141131D03*
X0280451Y0140731D03*
X0280851Y0139131D03*
X0280851Y0138731D03*
X0281251Y0137531D03*
X0281251Y0137131D03*
X0281251Y0136731D03*
X0281651Y0135531D03*
X0281651Y0135131D03*
X0281651Y0134731D03*
X0281651Y0134331D03*
X0282051Y0133531D03*
X0282051Y0133131D03*
X0282051Y0132731D03*
X0282051Y0132331D03*
X0282051Y0131931D03*
X0282451Y0131131D03*
X0282451Y0130331D03*
X0282451Y0129931D03*
X0282451Y0129531D03*
X0282851Y0127131D03*
X0282851Y0126731D03*
X0282851Y0126331D03*
X0282851Y0125931D03*
X0282851Y0125531D03*
X0282851Y0124731D03*
X0282851Y0124331D03*
X0282851Y0123931D03*
X0282851Y0122731D03*
X0282851Y0111531D03*
X0282851Y0110331D03*
X0282851Y0109931D03*
X0282851Y0109531D03*
X0282851Y0108731D03*
X0282851Y0108331D03*
X0282851Y0107931D03*
X0282851Y0107531D03*
X0282851Y0107131D03*
X0282451Y0104731D03*
X0282451Y0104331D03*
X0282451Y0103931D03*
X0282451Y0103131D03*
X0282051Y0102331D03*
X0282051Y0101931D03*
X0282051Y0101531D03*
X0282051Y0101131D03*
X0282051Y0100731D03*
X0281651Y0099931D03*
X0281651Y0099531D03*
X0281651Y0099131D03*
X0281651Y0098731D03*
X0281251Y0097531D03*
X0281251Y0097131D03*
X0281251Y0096731D03*
X0280851Y0095531D03*
X0280851Y0095131D03*
X0280451Y0093531D03*
X0280451Y0093131D03*
X0280051Y0091931D03*
X0279651Y0090331D03*
X0242451Y0063131D03*
X0219651Y0059131D03*
D106*
X0218651Y0045931D03*
X0219451Y0045531D03*
X0221451Y0043931D03*
X0146651Y0082731D03*
X0146251Y0094331D03*
D107*
X0164851Y0105931D03*
X0120851Y0107931D03*
X0120851Y0108331D03*
X0120851Y0108731D03*
X0120851Y0102731D03*
X0120851Y0102331D03*
X0120851Y0101931D03*
X0120851Y0101531D03*
X0120851Y0096331D03*
X0120851Y0095931D03*
X0120851Y0095531D03*
X0120851Y0091131D03*
X0120851Y0090731D03*
X0120851Y0090331D03*
X0120851Y0089931D03*
X0120851Y0084331D03*
X0120851Y0083931D03*
X0120851Y0068331D03*
X0120851Y0067931D03*
X0120851Y0067531D03*
X0120851Y0067131D03*
X0120851Y0066731D03*
X0120851Y0066331D03*
X0120851Y0065931D03*
X0120851Y0065531D03*
X0120851Y0065131D03*
X0120851Y0064731D03*
X0120851Y0059931D03*
X0120851Y0059531D03*
X0120851Y0054731D03*
X0111651Y0048331D03*
X0110451Y0049531D03*
X0110051Y0049931D03*
X0109651Y0050331D03*
X0109251Y0050731D03*
X0140851Y0063131D03*
X0140451Y0065931D03*
X0140451Y0066331D03*
X0120851Y0115931D03*
X0120851Y0116331D03*
X0120851Y0116731D03*
X0156051Y0140331D03*
X0136851Y0150331D03*
X0120851Y0151531D03*
X0120851Y0151931D03*
X0120851Y0157131D03*
X0120851Y0157531D03*
X0120851Y0157931D03*
X0120851Y0158331D03*
X0120851Y0161131D03*
X0120851Y0165931D03*
X0120851Y0171131D03*
X0120851Y0171531D03*
X0120851Y0171931D03*
X0120851Y0172331D03*
X0120851Y0172731D03*
X0120851Y0173131D03*
X0120851Y0173531D03*
X0120851Y0173931D03*
X0120851Y0174331D03*
X0120851Y0174731D03*
X0120851Y0179131D03*
X0120851Y0179531D03*
X0120851Y0179931D03*
X0113251Y0187531D03*
X0112851Y0187131D03*
X0112451Y0186731D03*
X0111651Y0185931D03*
X0110451Y0184731D03*
X0110051Y0184331D03*
X0109651Y0183931D03*
X0113651Y0187931D03*
X0114051Y0188331D03*
X0116051Y0190331D03*
X0131251Y0193531D03*
X0132851Y0175531D03*
X0120851Y0143131D03*
X0120851Y0142731D03*
X0120851Y0142331D03*
X0191251Y0153531D03*
X0192851Y0155131D03*
X0202451Y0148731D03*
X0202851Y0149131D03*
X0209651Y0157131D03*
X0210051Y0157531D03*
X0219651Y0184331D03*
X0251251Y0190331D03*
X0251651Y0189931D03*
X0252051Y0189531D03*
X0252451Y0189131D03*
X0252851Y0188731D03*
X0253251Y0188331D03*
X0253651Y0187931D03*
X0254051Y0187531D03*
X0254451Y0187131D03*
X0254851Y0186731D03*
X0255651Y0185931D03*
X0256851Y0184731D03*
X0249651Y0119131D03*
X0225251Y0063131D03*
X0251251Y0043931D03*
X0253251Y0045931D03*
X0253651Y0046331D03*
X0254051Y0046731D03*
X0254451Y0047131D03*
X0254851Y0047531D03*
X0255651Y0048331D03*
X0256851Y0049531D03*
X0257251Y0049931D03*
X0257651Y0050331D03*
D108*
X0259451Y0081931D03*
X0227451Y0116331D03*
X0228251Y0122331D03*
X0200251Y0138331D03*
X0231051Y0147931D03*
X0231451Y0148331D03*
X0231851Y0148731D03*
X0232251Y0168331D03*
X0232651Y0169131D03*
X0233051Y0169531D03*
X0233051Y0169931D03*
X0233451Y0170331D03*
X0233851Y0170731D03*
X0236651Y0178331D03*
X0233051Y0179131D03*
X0227851Y0186331D03*
X0227851Y0188331D03*
X0228251Y0189131D03*
X0219851Y0191131D03*
X0208651Y0198331D03*
X0210651Y0201531D03*
X0211851Y0203531D03*
X0199051Y0209531D03*
X0182651Y0211931D03*
X0177451Y0187931D03*
X0177451Y0187531D03*
X0177451Y0187131D03*
X0195451Y0163531D03*
X0213451Y0168331D03*
X0239451Y0187531D03*
X0239851Y0187931D03*
X0240651Y0189531D03*
X0149051Y0142731D03*
X0149051Y0142331D03*
X0137051Y0143531D03*
X0137051Y0143931D03*
X0130651Y0141131D03*
X0129451Y0157531D03*
X0131851Y0172731D03*
X0136651Y0183931D03*
X0136651Y0184331D03*
X0129451Y0186731D03*
X0130251Y0195131D03*
X0133451Y0197131D03*
X0143051Y0202331D03*
X0129051Y0109531D03*
X0129451Y0101931D03*
X0129451Y0090331D03*
X0129051Y0089531D03*
X0167851Y0102331D03*
X0167851Y0102731D03*
X0139051Y0057531D03*
X0139451Y0057131D03*
X0139451Y0056731D03*
X0139451Y0056331D03*
X0139451Y0055931D03*
X0135051Y0058331D03*
X0133851Y0057131D03*
X0133451Y0056731D03*
X0122251Y0045531D03*
X0122651Y0045131D03*
X0123051Y0044731D03*
X0123451Y0044331D03*
D109*
X0146051Y0105931D03*
X0220051Y0045131D03*
X0220451Y0044731D03*
X0220851Y0044331D03*
D110*
X0219651Y0053531D03*
X0215651Y0056731D03*
X0168451Y0044731D03*
X0141251Y0129131D03*
X0141251Y0129531D03*
D111*
X0139451Y0135131D03*
X0144251Y0141531D03*
X0143851Y0142731D03*
X0142651Y0145531D03*
X0137051Y0142731D03*
X0137051Y0142331D03*
X0138651Y0153931D03*
X0138651Y0154331D03*
X0139051Y0154731D03*
X0139051Y0155131D03*
X0139051Y0157931D03*
X0139051Y0158331D03*
X0135851Y0165131D03*
X0136651Y0166331D03*
X0137051Y0166731D03*
X0137051Y0167131D03*
X0137451Y0167531D03*
X0137451Y0167931D03*
X0137851Y0168731D03*
X0137851Y0172331D03*
X0137451Y0172731D03*
X0137451Y0173131D03*
X0137051Y0173531D03*
X0134251Y0178331D03*
X0135451Y0179931D03*
X0135851Y0180731D03*
X0136251Y0181531D03*
X0136251Y0181931D03*
X0136651Y0183531D03*
X0129451Y0181931D03*
X0129451Y0186331D03*
X0148251Y0187531D03*
X0148251Y0187931D03*
X0148251Y0188331D03*
X0148251Y0188731D03*
X0130251Y0158731D03*
X0156251Y0142331D03*
X0129451Y0115131D03*
X0129451Y0110731D03*
X0129451Y0110331D03*
X0130251Y0103131D03*
X0130251Y0091531D03*
X0168251Y0101531D03*
X0168251Y0103531D03*
X0167851Y0104331D03*
X0200251Y0137931D03*
X0207851Y0143531D03*
X0213451Y0150331D03*
X0213451Y0150731D03*
X0229851Y0163131D03*
X0229851Y0163531D03*
X0230251Y0163931D03*
X0230251Y0164331D03*
X0230651Y0165131D03*
X0218251Y0176331D03*
X0218251Y0176731D03*
X0213051Y0166331D03*
X0195051Y0162731D03*
X0195051Y0162331D03*
X0211451Y0189531D03*
X0211851Y0190731D03*
X0212251Y0191531D03*
X0215451Y0197531D03*
X0208251Y0197931D03*
X0219451Y0190731D03*
X0224651Y0187931D03*
X0240251Y0188331D03*
X0239851Y0145931D03*
X0228251Y0121931D03*
X0228251Y0121531D03*
X0219051Y0059531D03*
X0139051Y0054331D03*
X0139051Y0053931D03*
X0139051Y0053531D03*
X0139051Y0053131D03*
X0139051Y0052731D03*
X0139051Y0052331D03*
X0139051Y0051931D03*
X0139051Y0051531D03*
X0139051Y0051131D03*
X0138651Y0050331D03*
X0138651Y0049531D03*
X0138651Y0049131D03*
X0138651Y0048731D03*
X0138651Y0048331D03*
X0138651Y0058331D03*
X0121851Y0045931D03*
D112*
X0121651Y0046331D03*
X0132051Y0047931D03*
X0138851Y0047931D03*
X0132851Y0055931D03*
X0130851Y0069531D03*
X0168451Y0101131D03*
X0130451Y0103531D03*
X0129651Y0111131D03*
X0129651Y0114331D03*
X0129651Y0114731D03*
X0144851Y0139931D03*
X0144451Y0140331D03*
X0144451Y0140731D03*
X0144451Y0141131D03*
X0144051Y0141931D03*
X0144051Y0142331D03*
X0143651Y0143131D03*
X0143651Y0143531D03*
X0143251Y0143931D03*
X0143251Y0144331D03*
X0142851Y0144731D03*
X0142851Y0145131D03*
X0142451Y0145931D03*
X0142051Y0146331D03*
X0142051Y0146731D03*
X0141651Y0147131D03*
X0141251Y0147531D03*
X0141251Y0147931D03*
X0140851Y0148331D03*
X0137651Y0152731D03*
X0138051Y0153131D03*
X0138451Y0153531D03*
X0138851Y0158731D03*
X0138451Y0159131D03*
X0134451Y0163531D03*
X0134851Y0163931D03*
X0135251Y0164331D03*
X0135651Y0164731D03*
X0136051Y0165531D03*
X0136451Y0165931D03*
X0130451Y0159131D03*
X0130451Y0142731D03*
X0130451Y0142331D03*
X0148851Y0140731D03*
X0148851Y0140331D03*
X0149251Y0141131D03*
X0149251Y0141531D03*
X0156451Y0141931D03*
X0194851Y0161531D03*
X0194851Y0161931D03*
X0212851Y0165931D03*
X0218051Y0177131D03*
X0218051Y0177531D03*
X0224451Y0187531D03*
X0219251Y0190331D03*
X0212051Y0191131D03*
X0198851Y0209931D03*
X0176851Y0185931D03*
X0148051Y0187131D03*
X0147651Y0186731D03*
X0148051Y0189131D03*
X0147651Y0189531D03*
X0136051Y0181131D03*
X0135651Y0180331D03*
X0135251Y0179531D03*
X0134851Y0179131D03*
X0134451Y0178731D03*
X0134051Y0177931D03*
X0133651Y0177531D03*
X0133251Y0177131D03*
X0132851Y0176731D03*
X0129651Y0182331D03*
X0129651Y0185931D03*
X0205251Y0137531D03*
X0210851Y0147131D03*
X0211251Y0147931D03*
X0211651Y0148331D03*
X0212051Y0148731D03*
X0212451Y0149131D03*
X0212851Y0149531D03*
X0213251Y0149931D03*
X0220051Y0146731D03*
X0215251Y0144331D03*
X0214851Y0125531D03*
X0228051Y0121131D03*
X0229651Y0162731D03*
D113*
X0197051Y0119931D03*
X0213851Y0057531D03*
X0167851Y0046331D03*
D114*
X0132251Y0055131D03*
X0131851Y0054731D03*
X0121451Y0047131D03*
X0130651Y0066731D03*
X0129851Y0112731D03*
X0129851Y0113131D03*
X0137051Y0139931D03*
X0137051Y0140331D03*
X0137051Y0140731D03*
X0130251Y0143931D03*
X0130251Y0144331D03*
X0156651Y0141531D03*
X0212251Y0164731D03*
X0228651Y0161131D03*
X0221051Y0147531D03*
X0215051Y0143931D03*
X0215051Y0124731D03*
X0227451Y0120331D03*
X0250251Y0120331D03*
X0247051Y0077931D03*
X0218251Y0178731D03*
X0229851Y0181931D03*
X0238251Y0187131D03*
X0219451Y0189531D03*
X0214251Y0195931D03*
X0214651Y0196731D03*
X0214651Y0197131D03*
X0207451Y0195931D03*
X0206251Y0193531D03*
X0129851Y0193931D03*
X0122651Y0188331D03*
X0129851Y0184331D03*
D115*
X0190651Y0142331D03*
X0156651Y0118331D03*
X0157051Y0115931D03*
X0157051Y0115531D03*
X0211451Y0049131D03*
X0211851Y0048731D03*
X0212251Y0048331D03*
X0212651Y0047931D03*
X0213451Y0047531D03*
X0213851Y0047131D03*
D116*
X0167451Y0047531D03*
X0183451Y0216731D03*
D117*
X0167051Y0049131D03*
X0167051Y0048731D03*
D118*
X0125451Y0049131D03*
X0224651Y0058731D03*
X0215851Y0211131D03*
X0151451Y0211131D03*
D119*
X0196451Y0121131D03*
X0166851Y0049531D03*
D120*
X0143451Y0073131D03*
X0125451Y0053931D03*
X0125451Y0053531D03*
X0125451Y0053131D03*
X0125451Y0052731D03*
X0125451Y0052331D03*
X0125451Y0051931D03*
X0125451Y0051131D03*
X0125051Y0049931D03*
D121*
X0133251Y0056331D03*
X0138851Y0057931D03*
X0139251Y0055531D03*
X0139251Y0055131D03*
X0139251Y0054731D03*
X0138851Y0050731D03*
X0138851Y0049931D03*
X0129651Y0090731D03*
X0130051Y0091131D03*
X0129651Y0102331D03*
X0130051Y0102731D03*
X0129251Y0109931D03*
X0167651Y0105131D03*
X0167651Y0104731D03*
X0168051Y0103931D03*
X0168051Y0103131D03*
X0168051Y0101931D03*
X0214851Y0125931D03*
X0210851Y0140331D03*
X0210851Y0140731D03*
X0211251Y0141131D03*
X0211251Y0141531D03*
X0207251Y0143131D03*
X0206851Y0142731D03*
X0206451Y0142331D03*
X0206051Y0141931D03*
X0215251Y0144731D03*
X0219651Y0146331D03*
X0238851Y0145131D03*
X0239251Y0145531D03*
X0240451Y0146331D03*
X0230451Y0164731D03*
X0230851Y0165531D03*
X0230851Y0165931D03*
X0231251Y0166331D03*
X0231251Y0166731D03*
X0231651Y0167131D03*
X0231651Y0167531D03*
X0232051Y0167931D03*
X0232451Y0168731D03*
X0236851Y0179531D03*
X0232851Y0185931D03*
X0228051Y0185931D03*
X0227651Y0186731D03*
X0227651Y0187131D03*
X0227651Y0187531D03*
X0227651Y0187931D03*
X0228051Y0188731D03*
X0220051Y0191531D03*
X0215651Y0197931D03*
X0216051Y0198331D03*
X0216051Y0198731D03*
X0210851Y0201931D03*
X0211251Y0203131D03*
X0198451Y0210731D03*
X0181251Y0210731D03*
X0211651Y0190331D03*
X0211651Y0189931D03*
X0211251Y0189131D03*
X0218451Y0175931D03*
X0213251Y0167931D03*
X0213251Y0167531D03*
X0213251Y0167131D03*
X0213251Y0166731D03*
X0195251Y0163131D03*
X0176451Y0185131D03*
X0177251Y0186331D03*
X0177251Y0186731D03*
X0144451Y0203131D03*
X0134051Y0197531D03*
X0130051Y0194731D03*
X0136451Y0183131D03*
X0136451Y0182731D03*
X0136451Y0182331D03*
X0129251Y0181531D03*
X0129251Y0181131D03*
X0138051Y0171931D03*
X0138051Y0171531D03*
X0138051Y0171131D03*
X0138051Y0170731D03*
X0138051Y0170331D03*
X0138051Y0169931D03*
X0138051Y0169531D03*
X0138051Y0169131D03*
X0137651Y0168331D03*
X0139251Y0157531D03*
X0139251Y0157131D03*
X0139251Y0156731D03*
X0139251Y0156331D03*
X0139251Y0155931D03*
X0139251Y0155531D03*
X0130051Y0158331D03*
X0129651Y0157931D03*
X0137251Y0143131D03*
X0130451Y0141931D03*
X0130451Y0141531D03*
X0148851Y0141931D03*
X0240451Y0188731D03*
X0240451Y0189131D03*
D122*
X0166051Y0051531D03*
X0166451Y0050731D03*
D123*
X0210251Y0050731D03*
X0149451Y0088331D03*
X0149451Y0088731D03*
X0149451Y0089131D03*
X0149451Y0089531D03*
X0149451Y0089931D03*
X0149451Y0090331D03*
X0149451Y0099931D03*
X0149451Y0100331D03*
X0149451Y0100731D03*
X0149451Y0101131D03*
X0156251Y0114731D03*
D124*
X0148651Y0103531D03*
X0149051Y0098731D03*
X0149051Y0098331D03*
X0148651Y0091931D03*
X0149051Y0091531D03*
X0149051Y0086731D03*
X0210251Y0051131D03*
X0136251Y0191531D03*
D125*
X0198251Y0131131D03*
X0196251Y0122331D03*
X0196251Y0121931D03*
X0166251Y0051931D03*
D126*
X0140451Y0064331D03*
X0140451Y0064731D03*
X0140451Y0065531D03*
X0120451Y0058331D03*
X0120451Y0057931D03*
X0120451Y0057531D03*
X0120451Y0056331D03*
X0120451Y0055931D03*
X0106851Y0053531D03*
X0105651Y0055131D03*
X0105251Y0055531D03*
X0104851Y0055931D03*
X0104451Y0056731D03*
X0104051Y0057131D03*
X0103651Y0057531D03*
X0103251Y0057931D03*
X0103251Y0058331D03*
X0102851Y0058731D03*
X0102451Y0059131D03*
X0102051Y0059931D03*
X0101651Y0060331D03*
X0101251Y0061131D03*
X0100851Y0061531D03*
X0098851Y0064731D03*
X0120451Y0111531D03*
X0120451Y0111931D03*
X0120451Y0112331D03*
X0120451Y0112731D03*
X0120451Y0113131D03*
X0156051Y0140731D03*
X0130451Y0147131D03*
X0130451Y0147531D03*
X0120451Y0144731D03*
X0120451Y0144331D03*
X0120451Y0150731D03*
X0120451Y0161931D03*
X0120451Y0162331D03*
X0120451Y0162731D03*
X0120451Y0163931D03*
X0120451Y0164331D03*
X0120451Y0164731D03*
X0134051Y0161531D03*
X0120451Y0182731D03*
X0120451Y0183131D03*
X0120451Y0183531D03*
X0120451Y0183931D03*
X0120851Y0185131D03*
X0107251Y0181131D03*
X0106851Y0180731D03*
X0106051Y0179531D03*
X0105651Y0179131D03*
X0105251Y0178731D03*
X0104851Y0178331D03*
X0104451Y0177531D03*
X0104051Y0177131D03*
X0103651Y0176731D03*
X0103251Y0175931D03*
X0102851Y0175531D03*
X0102051Y0174331D03*
X0101251Y0173131D03*
X0193251Y0155931D03*
X0206851Y0154731D03*
X0207251Y0155131D03*
X0210451Y0158331D03*
X0210851Y0158731D03*
X0211251Y0159531D03*
X0211651Y0159931D03*
X0211651Y0160331D03*
X0236051Y0182331D03*
X0219251Y0183131D03*
X0219251Y0183531D03*
X0259251Y0181931D03*
X0259651Y0181531D03*
X0260051Y0181131D03*
X0260451Y0180731D03*
X0260851Y0179931D03*
X0261251Y0179531D03*
X0261651Y0179131D03*
X0262051Y0178731D03*
X0262451Y0177931D03*
X0262851Y0177531D03*
X0263251Y0177131D03*
X0264051Y0175931D03*
X0264451Y0175531D03*
X0265251Y0174331D03*
X0266051Y0173131D03*
X0249651Y0119531D03*
X0266051Y0061131D03*
X0265251Y0059931D03*
X0264451Y0058731D03*
X0264051Y0058331D03*
X0263651Y0057531D03*
X0263251Y0057131D03*
X0262851Y0056731D03*
X0262451Y0056331D03*
X0262451Y0055931D03*
X0262051Y0055531D03*
X0261651Y0055131D03*
X0261251Y0054731D03*
X0260851Y0054331D03*
X0260451Y0053531D03*
X0260051Y0053131D03*
X0259651Y0052731D03*
X0165251Y0105531D03*
D127*
X0196051Y0123531D03*
X0198051Y0131931D03*
X0165651Y0054731D03*
X0165651Y0054331D03*
X0165651Y0053931D03*
X0183651Y0217131D03*
D128*
X0196251Y0123931D03*
X0165451Y0056331D03*
X0165451Y0055931D03*
X0165451Y0055531D03*
X0165451Y0055131D03*
D129*
X0219651Y0055531D03*
D130*
X0263851Y0057931D03*
X0264651Y0059131D03*
X0265051Y0059531D03*
X0265451Y0060331D03*
X0265851Y0060731D03*
X0266251Y0061531D03*
X0266651Y0061931D03*
X0267051Y0062331D03*
X0267051Y0062731D03*
X0267451Y0063131D03*
X0267851Y0063931D03*
X0268251Y0064331D03*
X0268251Y0064731D03*
X0268651Y0065131D03*
X0269451Y0066331D03*
X0269851Y0067131D03*
X0270251Y0067931D03*
X0270651Y0068331D03*
X0271051Y0069131D03*
X0271451Y0069931D03*
X0271851Y0070731D03*
X0272251Y0071531D03*
X0203451Y0149931D03*
X0203851Y0150331D03*
X0205851Y0153531D03*
X0206251Y0153931D03*
X0206651Y0154331D03*
X0211851Y0160731D03*
X0211851Y0161131D03*
X0211851Y0161531D03*
X0193451Y0156331D03*
X0219051Y0181131D03*
X0219051Y0181531D03*
X0219051Y0181931D03*
X0219051Y0182331D03*
X0219051Y0182731D03*
X0211851Y0192331D03*
X0236251Y0181931D03*
X0236251Y0181531D03*
X0262251Y0178331D03*
X0263451Y0176731D03*
X0263851Y0176331D03*
X0264651Y0175131D03*
X0265051Y0174731D03*
X0265451Y0173931D03*
X0265851Y0173531D03*
X0266251Y0172731D03*
X0266651Y0172331D03*
X0267051Y0171531D03*
X0267451Y0171131D03*
X0267851Y0170331D03*
X0268251Y0169931D03*
X0268251Y0169531D03*
X0268651Y0169131D03*
X0269451Y0167931D03*
X0269851Y0167131D03*
X0270251Y0166331D03*
X0271451Y0164331D03*
X0271851Y0163531D03*
X0155851Y0141131D03*
X0137051Y0150731D03*
X0120251Y0150331D03*
X0120251Y0145931D03*
X0120251Y0145531D03*
X0120251Y0145131D03*
X0120251Y0138731D03*
X0138651Y0115131D03*
X0095051Y0071531D03*
X0095451Y0070731D03*
X0095851Y0069931D03*
X0096251Y0069131D03*
X0096651Y0068331D03*
X0097051Y0067931D03*
X0097051Y0067531D03*
X0097451Y0067131D03*
X0097451Y0066731D03*
X0097851Y0066331D03*
X0098251Y0065531D03*
X0098651Y0065131D03*
X0099051Y0064331D03*
X0099451Y0063931D03*
X0099451Y0063531D03*
X0099851Y0063131D03*
X0100251Y0062731D03*
X0100251Y0062331D03*
X0100651Y0061931D03*
X0101451Y0060731D03*
X0102251Y0059531D03*
X0120251Y0057131D03*
X0120251Y0056731D03*
X0140251Y0065131D03*
X0120251Y0163131D03*
X0120251Y0163531D03*
X0132651Y0175931D03*
X0121051Y0185531D03*
X0103451Y0176331D03*
X0102651Y0175131D03*
X0102251Y0174731D03*
X0101851Y0173931D03*
X0101451Y0173531D03*
X0101051Y0172731D03*
X0100651Y0172331D03*
X0100251Y0171931D03*
X0100251Y0171531D03*
X0099851Y0171131D03*
X0099451Y0170731D03*
X0099451Y0170331D03*
X0099051Y0169931D03*
X0099051Y0169531D03*
X0098651Y0169131D03*
X0098251Y0168731D03*
X0097851Y0167931D03*
X0097451Y0167131D03*
X0097051Y0166731D03*
X0097051Y0166331D03*
X0096651Y0165931D03*
X0096251Y0165131D03*
X0095851Y0164331D03*
X0095451Y0163531D03*
X0095051Y0162731D03*
X0145851Y0190331D03*
D131*
X0134451Y0197931D03*
X0132451Y0196731D03*
X0144851Y0203531D03*
X0129251Y0180731D03*
X0129251Y0157131D03*
X0128851Y0156731D03*
X0128851Y0156331D03*
X0149251Y0143131D03*
X0135251Y0139131D03*
X0130451Y0140731D03*
X0129251Y0115531D03*
X0129251Y0101531D03*
X0128851Y0101131D03*
X0128851Y0100731D03*
X0129251Y0089931D03*
X0128851Y0089131D03*
X0132051Y0066331D03*
X0132051Y0062331D03*
X0134451Y0057931D03*
X0134051Y0057531D03*
X0172451Y0102331D03*
X0205651Y0141531D03*
X0195651Y0163931D03*
X0213251Y0168731D03*
X0213251Y0169131D03*
X0218451Y0175531D03*
X0233251Y0179531D03*
X0236451Y0177931D03*
X0236451Y0177531D03*
X0236451Y0177131D03*
X0236051Y0176731D03*
X0236051Y0176331D03*
X0235651Y0175931D03*
X0236851Y0178731D03*
X0236851Y0179131D03*
X0242051Y0183131D03*
X0242051Y0183531D03*
X0242051Y0183931D03*
X0242051Y0184331D03*
X0228451Y0189531D03*
X0224851Y0189131D03*
X0224851Y0188731D03*
X0224851Y0188331D03*
X0220051Y0191931D03*
X0215651Y0199131D03*
X0215651Y0199531D03*
X0215651Y0199931D03*
X0216451Y0201131D03*
X0210451Y0199531D03*
X0210051Y0199131D03*
X0208851Y0198731D03*
X0200851Y0196331D03*
X0200451Y0195931D03*
X0199651Y0194731D03*
X0199651Y0194331D03*
X0204851Y0192731D03*
X0181251Y0183131D03*
X0181251Y0182731D03*
X0176451Y0184731D03*
X0177651Y0188331D03*
X0177651Y0188731D03*
X0180451Y0209931D03*
X0180851Y0210331D03*
X0182451Y0211531D03*
X0234051Y0171131D03*
X0234451Y0171531D03*
X0234851Y0171931D03*
X0242451Y0147131D03*
X0250851Y0120731D03*
X0259651Y0081531D03*
D132*
X0273851Y0074731D03*
X0273451Y0073931D03*
X0273051Y0073131D03*
X0274251Y0075531D03*
X0274651Y0076331D03*
X0275051Y0077531D03*
X0275451Y0078331D03*
X0275851Y0079131D03*
X0276251Y0080331D03*
X0276651Y0081131D03*
X0276651Y0081531D03*
X0277051Y0082331D03*
X0277051Y0082731D03*
X0277451Y0083131D03*
X0277451Y0083531D03*
X0277851Y0084331D03*
X0277851Y0084731D03*
X0278251Y0085531D03*
X0278251Y0085931D03*
X0278251Y0086331D03*
X0278651Y0086731D03*
X0278651Y0087131D03*
X0278651Y0087531D03*
X0279051Y0087931D03*
X0279051Y0088331D03*
X0279051Y0088731D03*
X0279451Y0089131D03*
X0279451Y0089531D03*
X0279451Y0089931D03*
X0279851Y0090731D03*
X0279851Y0091131D03*
X0279851Y0091531D03*
X0280251Y0092331D03*
X0280251Y0092731D03*
X0280651Y0093931D03*
X0280651Y0094331D03*
X0280651Y0094731D03*
X0281051Y0095931D03*
X0281051Y0096331D03*
X0281451Y0097931D03*
X0281451Y0098331D03*
X0281851Y0100331D03*
X0282251Y0102731D03*
X0282251Y0103531D03*
X0282651Y0105131D03*
X0282651Y0105531D03*
X0282651Y0105931D03*
X0282651Y0106331D03*
X0282651Y0106731D03*
X0283051Y0109131D03*
X0283051Y0125131D03*
X0282651Y0127531D03*
X0282651Y0127931D03*
X0282651Y0128331D03*
X0282651Y0128731D03*
X0282651Y0129131D03*
X0282251Y0130731D03*
X0282251Y0131531D03*
X0281851Y0133931D03*
X0281451Y0135931D03*
X0281451Y0136331D03*
X0281051Y0137931D03*
X0281051Y0138331D03*
X0280651Y0139531D03*
X0280651Y0139931D03*
X0280651Y0140331D03*
X0280251Y0141531D03*
X0280251Y0141931D03*
X0279851Y0142731D03*
X0279851Y0143131D03*
X0279851Y0143531D03*
X0279451Y0144331D03*
X0279451Y0144731D03*
X0279051Y0145531D03*
X0279051Y0145931D03*
X0279051Y0146331D03*
X0278651Y0146731D03*
X0278651Y0147131D03*
X0278651Y0147531D03*
X0278251Y0147931D03*
X0278251Y0148331D03*
X0278251Y0148731D03*
X0277851Y0149131D03*
X0277851Y0149531D03*
X0277851Y0149931D03*
X0277451Y0150731D03*
X0277451Y0151131D03*
X0277051Y0151531D03*
X0277051Y0151931D03*
X0276651Y0152731D03*
X0276651Y0153131D03*
X0276251Y0153931D03*
X0275851Y0154731D03*
X0275851Y0155131D03*
X0275451Y0155931D03*
X0275051Y0156731D03*
X0274651Y0157531D03*
X0274651Y0157931D03*
X0274251Y0158731D03*
X0273851Y0159531D03*
X0273451Y0160331D03*
X0273051Y0161131D03*
X0272651Y0161931D03*
X0227451Y0159131D03*
X0227051Y0158331D03*
X0227051Y0157931D03*
X0226651Y0157531D03*
X0226251Y0156731D03*
X0225051Y0154731D03*
X0224651Y0154331D03*
X0224251Y0153531D03*
X0223851Y0153131D03*
X0223851Y0152731D03*
X0223451Y0152331D03*
X0223451Y0151931D03*
X0223051Y0151531D03*
X0223051Y0151131D03*
X0222651Y0150331D03*
X0222651Y0149931D03*
X0222251Y0149531D03*
X0211851Y0161931D03*
X0211851Y0162331D03*
X0211851Y0162731D03*
X0193851Y0157131D03*
X0219451Y0187931D03*
X0212251Y0192731D03*
X0212251Y0193131D03*
X0133851Y0161931D03*
X0119851Y0149931D03*
X0119851Y0149531D03*
X0119851Y0149131D03*
X0119851Y0148731D03*
X0119851Y0148331D03*
X0119851Y0147931D03*
X0119851Y0147531D03*
X0130251Y0145931D03*
X0132651Y0149131D03*
X0119851Y0138331D03*
X0119851Y0135531D03*
X0089451Y0149531D03*
X0089451Y0149931D03*
X0089851Y0150731D03*
X0089851Y0151131D03*
X0090251Y0151931D03*
X0090651Y0153131D03*
X0091051Y0153931D03*
X0091451Y0155131D03*
X0091851Y0155931D03*
X0092251Y0156731D03*
X0092651Y0157931D03*
X0093051Y0158731D03*
X0093451Y0159531D03*
X0089051Y0148731D03*
X0089051Y0148331D03*
X0088651Y0147531D03*
X0088651Y0147131D03*
X0088251Y0146331D03*
X0088251Y0145931D03*
X0088251Y0145531D03*
X0087851Y0145131D03*
X0087851Y0144731D03*
X0087851Y0144331D03*
X0087451Y0143931D03*
X0087451Y0143531D03*
X0087451Y0143131D03*
X0087451Y0142731D03*
X0087051Y0142331D03*
X0087051Y0141931D03*
X0087051Y0141531D03*
X0086651Y0140731D03*
X0086651Y0140331D03*
X0086651Y0139931D03*
X0086651Y0139531D03*
X0086251Y0138731D03*
X0086251Y0138331D03*
X0086251Y0137931D03*
X0085851Y0136731D03*
X0085851Y0136331D03*
X0085851Y0135931D03*
X0085451Y0134731D03*
X0085451Y0134331D03*
X0085451Y0133931D03*
X0085051Y0132331D03*
X0085051Y0131931D03*
X0085051Y0131531D03*
X0085051Y0130731D03*
X0084651Y0129131D03*
X0084651Y0128731D03*
X0084651Y0128331D03*
X0084651Y0127931D03*
X0084651Y0127531D03*
X0084251Y0126331D03*
X0084251Y0125931D03*
X0084251Y0125531D03*
X0084251Y0125131D03*
X0084251Y0124731D03*
X0084251Y0124331D03*
X0084251Y0123931D03*
X0084251Y0122731D03*
X0083851Y0119931D03*
X0083851Y0114331D03*
X0084251Y0111531D03*
X0084251Y0110331D03*
X0084251Y0109931D03*
X0084251Y0109531D03*
X0084251Y0109131D03*
X0084251Y0108731D03*
X0084251Y0108331D03*
X0084251Y0107931D03*
X0084651Y0106731D03*
X0084651Y0106331D03*
X0084651Y0105931D03*
X0084651Y0105531D03*
X0084651Y0105131D03*
X0084651Y0104731D03*
X0085051Y0103531D03*
X0085051Y0102731D03*
X0085051Y0102331D03*
X0085051Y0101931D03*
X0085451Y0100331D03*
X0085451Y0099931D03*
X0085451Y0099531D03*
X0085851Y0098331D03*
X0085851Y0097931D03*
X0085851Y0097531D03*
X0086251Y0096331D03*
X0086251Y0095931D03*
X0086251Y0095531D03*
X0086651Y0094731D03*
X0086651Y0094331D03*
X0086651Y0093931D03*
X0086651Y0093531D03*
X0087051Y0092731D03*
X0087051Y0092331D03*
X0087051Y0091931D03*
X0087451Y0091531D03*
X0087451Y0091131D03*
X0087451Y0090731D03*
X0087451Y0090331D03*
X0087851Y0089931D03*
X0087851Y0089531D03*
X0087851Y0089131D03*
X0088251Y0088731D03*
X0088251Y0088331D03*
X0088251Y0087931D03*
X0088651Y0087131D03*
X0088651Y0086731D03*
X0089051Y0085931D03*
X0089051Y0085531D03*
X0089451Y0084731D03*
X0089451Y0084331D03*
X0089851Y0083131D03*
X0090251Y0082331D03*
X0090651Y0081131D03*
X0091451Y0079131D03*
X0092651Y0076331D03*
X0093051Y0075531D03*
X0137051Y0058731D03*
X0250251Y0119931D03*
X0125451Y0189931D03*
X0121451Y0186331D03*
D133*
X0196851Y0075931D03*
X0177651Y0059931D03*
X0178051Y0059131D03*
X0178451Y0058731D03*
D134*
X0137851Y0059931D03*
X0137451Y0059531D03*
X0131051Y0067531D03*
X0227051Y0119931D03*
X0201051Y0137531D03*
X0213451Y0142331D03*
X0213851Y0142731D03*
X0214251Y0143131D03*
X0214651Y0143531D03*
X0221451Y0148331D03*
X0221851Y0148731D03*
X0227851Y0159931D03*
X0228251Y0160331D03*
X0211851Y0163531D03*
X0211851Y0163931D03*
X0194651Y0158731D03*
X0194251Y0157931D03*
X0218651Y0179131D03*
X0219451Y0189131D03*
X0235451Y0180331D03*
X0237851Y0186331D03*
X0283051Y0123531D03*
X0283051Y0123131D03*
X0283051Y0122331D03*
X0283051Y0121931D03*
X0283051Y0121531D03*
X0283051Y0121131D03*
X0283051Y0120731D03*
X0283051Y0120331D03*
X0283051Y0119931D03*
X0283051Y0119531D03*
X0283051Y0119131D03*
X0283051Y0118731D03*
X0283051Y0118331D03*
X0283051Y0117931D03*
X0283051Y0117531D03*
X0283051Y0117131D03*
X0283051Y0116731D03*
X0283051Y0116331D03*
X0283051Y0115931D03*
X0283051Y0115531D03*
X0283051Y0115131D03*
X0283051Y0114731D03*
X0283051Y0114331D03*
X0283051Y0113931D03*
X0283051Y0113531D03*
X0283051Y0113131D03*
X0283051Y0112731D03*
X0283051Y0112331D03*
X0283051Y0111931D03*
X0283051Y0111131D03*
X0283051Y0110731D03*
X0137051Y0139531D03*
X0130251Y0145131D03*
X0137051Y0151131D03*
X0121851Y0187131D03*
X0122251Y0187531D03*
X0126251Y0190731D03*
X0126651Y0191131D03*
D135*
X0177851Y0059531D03*
D136*
X0179451Y0060331D03*
D137*
X0179851Y0061131D03*
D138*
X0180851Y0062331D03*
X0196851Y0076331D03*
X0196851Y0076731D03*
D139*
X0197051Y0075531D03*
X0181451Y0062731D03*
D140*
X0182251Y0063131D03*
X0197451Y0074731D03*
D141*
X0189051Y0063531D03*
X0213051Y0101531D03*
X0213051Y0101931D03*
D142*
X0226051Y0119531D03*
X0204051Y0150731D03*
X0204451Y0151131D03*
X0204451Y0151531D03*
X0204851Y0151931D03*
X0205251Y0152331D03*
X0205251Y0152731D03*
X0205651Y0153131D03*
X0193651Y0156731D03*
X0225251Y0155131D03*
X0225651Y0155531D03*
X0226051Y0155931D03*
X0226051Y0156331D03*
X0226451Y0157131D03*
X0218851Y0179931D03*
X0218851Y0180331D03*
X0218851Y0180731D03*
X0212051Y0193531D03*
X0212851Y0195531D03*
X0266851Y0171931D03*
X0267651Y0170731D03*
X0268851Y0168731D03*
X0269251Y0168331D03*
X0269651Y0167531D03*
X0270051Y0166731D03*
X0270451Y0165931D03*
X0270851Y0165531D03*
X0270851Y0165131D03*
X0271251Y0164731D03*
X0271651Y0163931D03*
X0272051Y0163131D03*
X0272051Y0162731D03*
X0272451Y0162331D03*
X0272851Y0161531D03*
X0273251Y0160731D03*
X0273651Y0159931D03*
X0274051Y0159131D03*
X0274451Y0158331D03*
X0274851Y0157131D03*
X0275251Y0156331D03*
X0275651Y0155531D03*
X0276051Y0154331D03*
X0276451Y0153531D03*
X0276851Y0152331D03*
X0277651Y0150331D03*
X0278051Y0085131D03*
X0277651Y0083931D03*
X0276851Y0081931D03*
X0276451Y0080731D03*
X0276051Y0079931D03*
X0276051Y0079531D03*
X0275651Y0078731D03*
X0275251Y0077931D03*
X0274851Y0077131D03*
X0274851Y0076731D03*
X0274451Y0075931D03*
X0274051Y0075131D03*
X0273651Y0074331D03*
X0273251Y0073531D03*
X0272851Y0072731D03*
X0272851Y0072331D03*
X0272451Y0071931D03*
X0272051Y0071131D03*
X0271651Y0070331D03*
X0271251Y0069531D03*
X0270851Y0068731D03*
X0270051Y0067531D03*
X0269651Y0066731D03*
X0269251Y0065931D03*
X0268851Y0065531D03*
X0267651Y0063531D03*
X0130451Y0146331D03*
X0130451Y0146731D03*
X0120051Y0146731D03*
X0120051Y0147131D03*
X0120051Y0146331D03*
X0120051Y0135131D03*
X0089251Y0149131D03*
X0088851Y0147931D03*
X0088451Y0146731D03*
X0089651Y0150331D03*
X0090051Y0151531D03*
X0090451Y0152331D03*
X0090451Y0152731D03*
X0090851Y0153531D03*
X0091251Y0154331D03*
X0091251Y0154731D03*
X0091651Y0155531D03*
X0092051Y0156331D03*
X0092451Y0157131D03*
X0092451Y0157531D03*
X0092851Y0158331D03*
X0093251Y0159131D03*
X0093651Y0159931D03*
X0093651Y0160331D03*
X0094051Y0160731D03*
X0094051Y0161131D03*
X0094451Y0161531D03*
X0094451Y0161931D03*
X0094851Y0162331D03*
X0095251Y0163131D03*
X0095651Y0163931D03*
X0096051Y0164731D03*
X0096451Y0165531D03*
X0097651Y0167531D03*
X0098051Y0168331D03*
X0121251Y0185931D03*
X0143651Y0184331D03*
X0088451Y0087531D03*
X0088851Y0086331D03*
X0089251Y0085131D03*
X0089651Y0083931D03*
X0089651Y0083531D03*
X0090051Y0082731D03*
X0090451Y0081931D03*
X0090451Y0081531D03*
X0090851Y0080731D03*
X0090851Y0080331D03*
X0091251Y0079931D03*
X0091251Y0079531D03*
X0091651Y0078731D03*
X0091651Y0078331D03*
X0092051Y0077931D03*
X0092051Y0077531D03*
X0092451Y0077131D03*
X0092451Y0076731D03*
X0092851Y0075931D03*
X0093251Y0075131D03*
X0093251Y0074731D03*
X0093651Y0074331D03*
X0093651Y0073931D03*
X0094051Y0073531D03*
X0094051Y0073131D03*
X0094451Y0072731D03*
X0094451Y0072331D03*
X0094851Y0071931D03*
X0095251Y0071131D03*
X0095651Y0070331D03*
X0096051Y0069531D03*
X0096451Y0068731D03*
X0098051Y0065931D03*
D143*
X0196851Y0063931D03*
D144*
X0197251Y0064331D03*
D145*
X0197251Y0064731D03*
X0198051Y0067931D03*
D146*
X0197651Y0065131D03*
D147*
X0197851Y0065531D03*
X0197851Y0065931D03*
X0198251Y0066731D03*
X0198251Y0067131D03*
D148*
X0198051Y0066331D03*
D149*
X0198251Y0067531D03*
D150*
X0197851Y0068331D03*
D151*
X0197651Y0068731D03*
D152*
X0197451Y0069131D03*
D153*
X0197251Y0069531D03*
X0212451Y0082331D03*
X0212451Y0082731D03*
X0212451Y0083131D03*
X0212451Y0083531D03*
X0212451Y0083931D03*
X0212451Y0084331D03*
D154*
X0197051Y0069931D03*
D155*
X0197651Y0070331D03*
X0209651Y0080331D03*
D156*
X0198051Y0070731D03*
X0211251Y0093931D03*
X0211251Y0094331D03*
X0211251Y0094731D03*
X0211251Y0095131D03*
X0211251Y0095531D03*
D157*
X0198651Y0071131D03*
D158*
X0199051Y0071531D03*
D159*
X0199451Y0071931D03*
X0213051Y0101131D03*
D160*
X0199851Y0072331D03*
D161*
X0200051Y0072731D03*
X0214051Y0105131D03*
X0214051Y0105531D03*
D162*
X0200051Y0073131D03*
D163*
X0144051Y0073531D03*
X0188451Y0139931D03*
X0211651Y0212331D03*
X0155651Y0212331D03*
D164*
X0199851Y0073531D03*
D165*
X0198251Y0073931D03*
D166*
X0148851Y0086331D03*
X0148851Y0097931D03*
X0148451Y0103931D03*
X0144851Y0074331D03*
X0128851Y0133531D03*
X0128851Y0133931D03*
D167*
X0197651Y0074331D03*
D168*
X0147851Y0084331D03*
X0146251Y0075131D03*
X0147451Y0095531D03*
D169*
X0197251Y0075131D03*
D170*
X0196651Y0077131D03*
D171*
X0196651Y0077531D03*
X0196651Y0077931D03*
D172*
X0147651Y0077931D03*
X0147651Y0078331D03*
X0147651Y0078731D03*
X0147651Y0079131D03*
X0147651Y0079531D03*
X0147651Y0079931D03*
X0147651Y0080331D03*
X0147651Y0080731D03*
X0147651Y0081131D03*
X0147651Y0083931D03*
D173*
X0198251Y0078331D03*
D174*
X0199051Y0078731D03*
D175*
X0199851Y0079131D03*
D176*
X0209051Y0079531D03*
X0211451Y0092731D03*
X0211451Y0093131D03*
X0211451Y0093531D03*
D177*
X0211451Y0091531D03*
X0211451Y0091131D03*
X0211451Y0090731D03*
X0211451Y0090331D03*
X0211451Y0089931D03*
X0209451Y0079931D03*
D178*
X0210251Y0080731D03*
X0211451Y0088331D03*
X0211451Y0088731D03*
X0211451Y0089131D03*
X0211451Y0089531D03*
D179*
X0211651Y0087931D03*
X0211651Y0087531D03*
X0210451Y0081131D03*
D180*
X0210851Y0081531D03*
X0211651Y0087131D03*
D181*
X0211851Y0086731D03*
X0211051Y0081931D03*
D182*
X0212451Y0084731D03*
X0212451Y0085131D03*
D183*
X0148651Y0085531D03*
X0148651Y0085931D03*
X0148251Y0092331D03*
X0148251Y0097131D03*
X0148651Y0097531D03*
X0129051Y0132731D03*
X0129051Y0133131D03*
X0161451Y0213531D03*
X0205851Y0213531D03*
D184*
X0212251Y0085931D03*
X0212251Y0085531D03*
D185*
X0212051Y0086331D03*
D186*
X0211251Y0091931D03*
X0211251Y0092331D03*
D187*
X0190851Y0127531D03*
X0144851Y0104331D03*
X0144851Y0093131D03*
X0144851Y0092731D03*
D188*
X0145851Y0093931D03*
X0145851Y0105531D03*
X0152651Y0119531D03*
D189*
X0211451Y0095931D03*
D190*
X0147851Y0096331D03*
D191*
X0211251Y0096331D03*
X0211251Y0096731D03*
X0211251Y0097131D03*
X0211251Y0097531D03*
X0211251Y0097931D03*
X0211251Y0098331D03*
D192*
X0211051Y0098731D03*
X0211051Y0099131D03*
X0211051Y0099531D03*
D193*
X0211251Y0099931D03*
X0211251Y0100331D03*
X0211251Y0100731D03*
D194*
X0214251Y0102331D03*
X0213851Y0105931D03*
D195*
X0214251Y0104731D03*
X0214651Y0104331D03*
X0214651Y0103931D03*
X0214651Y0103531D03*
X0214651Y0103131D03*
X0214651Y0102731D03*
D196*
X0190251Y0125931D03*
X0190251Y0126331D03*
X0145451Y0105131D03*
D197*
X0150651Y0106331D03*
X0151051Y0106731D03*
X0151451Y0107131D03*
X0151851Y0107931D03*
X0152251Y0108331D03*
X0195451Y0134731D03*
D198*
X0213251Y0109931D03*
X0213251Y0109531D03*
X0213651Y0107531D03*
X0213651Y0107131D03*
X0213651Y0106731D03*
X0213651Y0106331D03*
D199*
X0151651Y0107531D03*
D200*
X0213051Y0110331D03*
X0213051Y0110731D03*
X0213051Y0111131D03*
X0213051Y0111531D03*
X0213051Y0111931D03*
X0213051Y0112331D03*
X0213051Y0112731D03*
X0213051Y0113131D03*
X0213451Y0109131D03*
X0213451Y0108731D03*
X0213451Y0108331D03*
X0213451Y0107931D03*
D201*
X0152251Y0108731D03*
D202*
X0151851Y0109131D03*
D203*
X0151851Y0109531D03*
X0151851Y0109931D03*
D204*
X0151851Y0110731D03*
D205*
X0152051Y0111131D03*
X0152051Y0111531D03*
X0150451Y0119931D03*
X0192451Y0128731D03*
D206*
X0194251Y0136331D03*
X0151851Y0112331D03*
X0151851Y0111931D03*
D207*
X0152051Y0112731D03*
X0152051Y0113131D03*
X0151651Y0113931D03*
X0151651Y0114331D03*
D208*
X0151851Y0113531D03*
X0193851Y0136731D03*
D209*
X0189651Y0141131D03*
X0189251Y0140731D03*
X0244451Y0114331D03*
D210*
X0192451Y0144731D03*
X0192051Y0144331D03*
X0156051Y0118731D03*
X0136051Y0191931D03*
D211*
X0200851Y0119131D03*
X0200851Y0118731D03*
D212*
X0190651Y0125131D03*
X0191451Y0127931D03*
D213*
X0190451Y0126731D03*
D214*
X0195051Y0129531D03*
X0196251Y0133931D03*
D215*
X0196251Y0129931D03*
D216*
X0197251Y0132731D03*
D217*
X0196851Y0133131D03*
D218*
X0195851Y0134331D03*
D219*
X0194851Y0135531D03*
D220*
X0152451Y0138731D03*
X0152051Y0139131D03*
X0152851Y0211531D03*
X0214451Y0211531D03*
D221*
X0183651Y0217531D03*
D222*
X0183651Y0218331D03*
M02*
